<?xml version="1.0" encoding="utf-8"?>
<!-- Generator: Adobe Illustrator 14.0.0, SVG Export Plug-In . SVG Version: 6.00 Build 43363)  -->
<!DOCTYPE svg PUBLIC "-//W3C//DTD SVG 1.1//EN" "http://www.w3.org/Graphics/SVG/1.1/DTD/svg11.dtd">
<svg version="1.1" xmlns="http://www.w3.org/2000/svg" xmlns:xlink="http://www.w3.org/1999/xlink" x="0px" y="0px" width="800px"
	 height="800px" viewBox="0 0 800 800" enable-background="new 0 0 800 800" xml:space="preserve">
<g id="fullBG" display="none">
	<rect display="inline" fill="#3C3C3C" width="800" height="800"/>
</g>
<g id="innerBG" display="none">
	<circle display="inline" fill="#68C1DD" cx="400" cy="400" r="390"/>
	<circle display="inline" fill="#3C3C3C" cx="400" cy="400" r="375"/>
</g>
<g id="circle" display="none">
	<path display="inline" fill="#666666" d="M400,10C184.61,10,10,184.609,10,400s174.61,390,390,390c215.393,0,390-174.609,390-390
		S615.393,10,400,10z M400,775C192.894,775,25,607.104,25,400C25,192.892,192.894,25,400,25c207.105,0,375,167.892,375,375
		C775,607.104,607.105,775,400,775z"/>
</g>
<g id="Layer_4">
	<path fill="#68C1DD" d="M179.392,410C162.422,451.237,151,493.646,151,540c0,88.367,71.635,160,160,160
		c88.366,0,160-71.633,160-160c0-46.451-11.634-88.815-28.838-130H179.392z"/>
</g>
<g id="Layer_4_copy">
	<path fill="none" stroke="#EBEBEB" stroke-width="20" stroke-linecap="round" stroke-linejoin="bevel" d="M471,540
		c0,88.367-71.634,160-160,160c-88.365,0-160-71.633-160-160c0-150,119.532-258.701,160-420C349.753,282.597,471,390,471,540z"/>
	<circle opacity="0.7" fill="#EBEBEB" cx="223.728" cy="477.26" r="25"/>
	<path fill="#EBEBEB" d="M320.79,117.188c2.833,14.333,10.46,30.479-10.123,30.479c-17.917,0-12.667-16.417-10-30
		c2.66-13.55,4.477-20,10-20C316.189,97.667,318.112,103.642,320.79,117.188z"/>
	<line fill="none" stroke="#EBEBEB" stroke-width="20" x1="510" y1="145" x2="510" y2="605"/>
	<rect x="519" y="145" fill="#EBEBEB" width="90" height="30"/>
	<rect x="519" y="575" fill="#EBEBEB" width="90" height="30"/>
	<rect x="519" y="360" fill="#EBEBEB" width="90" height="30"/>
	<rect x="519" y="216.667" fill="#EBEBEB" width="45" height="30"/>
	<rect x="519" y="288.333" fill="#EBEBEB" width="45" height="30"/>
	<rect x="519" y="431.667" fill="#EBEBEB" width="45" height="30"/>
	<rect x="519" y="503.334" fill="#EBEBEB" width="45" height="30"/>
</g>
</svg>
