<?xml version="1.0" encoding="utf-8"?>
<!-- Generator: Adobe Illustrator 17.0.0, SVG Export Plug-In . SVG Version: 6.00 Build 0)  -->
<!DOCTYPE svg PUBLIC "-//W3C//DTD SVG 1.1//EN" "http://www.w3.org/Graphics/SVG/1.1/DTD/svg11.dtd">
<svg version="1.1" xmlns="http://www.w3.org/2000/svg" xmlns:xlink="http://www.w3.org/1999/xlink" x="0px" y="0px" width="50px"
	 height="50px" viewBox="0 0 50 50" style="enable-background:new 0 0 50 50;" xml:space="preserve">
<style type="text/css">
	.st0{fill:#555655;}
	.st1{fill:#A5A4A4;}
</style>
<g id="Layer_1">
	<g>
		<path class="st0" d="M50,44c0,3.3-2.7,6-6,6H6c-3.3,0-6-2.7-6-6V6c0-3.3,2.7-6,6-6h38c3.3,0,6,2.7,6,6V44z"/>
	</g>
</g>
<g id="Layer_2">
	<g>
		<path class="st1" d="M43,13c0,1.6-1.3,3-3,3H10c-1.6,0-3-1.4-3-3l0,0c0-1.6,1.4-3,3-3h30C41.7,10,43,11.4,43,13L43,13z"/>
	</g>
	<g>
		<path class="st1" d="M43,25c0,1.6-1.3,3-3,3H10c-1.6,0-3-1.4-3-3l0,0c0-1.6,1.4-3,3-3h30C41.7,22,43,23.4,43,25L43,25z"/>
	</g>
	<g>
		<path class="st1" d="M43,37c0,1.7-1.3,3-3,3H10c-1.6,0-3-1.3-3-3l0,0c0-1.7,1.4-3,3-3h30C41.7,34,43,35.3,43,37L43,37z"/>
	</g>
</g>
</svg>
