<?xml version="1.0" encoding="utf-8"?>
<!-- Generator: Adobe Illustrator 17.0.0, SVG Export Plug-In . SVG Version: 6.00 Build 0)  -->
<!DOCTYPE svg PUBLIC "-//W3C//DTD SVG 1.1//EN" "http://www.w3.org/Graphics/SVG/1.1/DTD/svg11.dtd">
<svg version="1.1" id="Layer_1" xmlns="http://www.w3.org/2000/svg" xmlns:xlink="http://www.w3.org/1999/xlink" x="0px" y="0px"
	 width="35px" height="35px" viewBox="0 0 35 35" style="enable-background:new 0 0 35 35;" xml:space="preserve">
<style type="text/css">
	.st0{fill:#CECCCC;}
</style>
<g>
	<path class="st0" d="M22.3,23.8c-1.3,1-2.9,1.6-4.7,1.6c-4.4,0-7.9-3.6-7.9-7.9h2.5l-4.8-6.7l-4.8,6.7H5C5,24.4,10.6,30,17.5,30
		c2.8,0,5.3-0.9,7.5-2.5L22.3,23.8z"/>
	<path class="st0" d="M30.1,17.5C30.1,10.6,24.4,5,17.5,5c-2.9,0-5.5,1-7.7,2.6l2.7,3.8c1.4-1.2,3.1-1.8,5.1-1.8
		c4.4,0,7.9,3.5,7.9,7.9h-2.7l4.8,6.7l4.8-6.7L30.1,17.5L30.1,17.5z"/>
</g>
</svg>
