<?xml version="1.0" encoding="utf-8"?>
<!-- Generator: Adobe Illustrator 17.0.0, SVG Export Plug-In . SVG Version: 6.00 Build 0)  -->
<!DOCTYPE svg PUBLIC "-//W3C//DTD SVG 1.1//EN" "http://www.w3.org/Graphics/SVG/1.1/DTD/svg11.dtd">
<svg version="1.1" id="Symbol" xmlns="http://www.w3.org/2000/svg" xmlns:xlink="http://www.w3.org/1999/xlink" x="0px" y="0px"
	 width="800px" height="800px" viewBox="0 0 800 800" style="enable-background:new 0 0 800 800;" xml:space="preserve">
<style type="text/css">
	.st0{display:none;}
	.st1{display:inline;fill:#68C1DD;}
	.st2{display:inline;fill:#3C3C3C;}
	.st3{fill:#CCCCCC;}
</style>
<g id="fullBG">
</g>
<g id="innerBG" class="st0">
	<circle class="st1" cx="400" cy="400" r="390"/>
	<circle class="st2" cx="400" cy="400" r="375"/>
</g>
<g id="Refresh_symbol">
	<path class="st3" d="M519.77,556.81c-32.91,24.86-73.88,39.61-118.3,39.61c-108.48,0-196.43-87.95-196.43-196.43h60.71
		L146.71,233.33L27.67,400h60.12c0,172.59,139.91,312.5,312.5,312.5c69.54,0,133.77-22.73,185.69-61.14L519.77,556.81z"/>
	<path class="st3" d="M712.79,400c0-172.59-139.91-312.5-312.5-312.5c-72.25,0-138.76,24.53-191.69,65.7l67.15,95.89
		c34.07-28.42,77.9-45.52,125.73-45.52c108.48,0,196.43,87.94,196.43,196.43h-66.67l119.05,166.67L769.33,400H712.79z"/>
</g>
</svg>
