<?xml version="1.0" encoding="utf-8"?>
<!-- Generator: Adobe Illustrator 17.0.0, SVG Export Plug-In . SVG Version: 6.00 Build 0)  -->
<!DOCTYPE svg PUBLIC "-//W3C//DTD SVG 1.1//EN" "http://www.w3.org/Graphics/SVG/1.1/DTD/svg11.dtd">
<svg version="1.1" id="Layer_1" xmlns="http://www.w3.org/2000/svg" xmlns:xlink="http://www.w3.org/1999/xlink" x="0px" y="0px"
	 width="50px" height="50px" viewBox="375 375 50 50" style="enable-background:new 375 375 50 50;" xml:space="preserve">
<style type="text/css">
	.st0{fill:#CCCCCC;}
</style>
<g>
	<path class="st0" d="M407.6,409.8c-2.1,1.6-4.6,2.5-7.4,2.5c-6.8,0-12.3-5.5-12.3-12.3h3.8l-7.4-10.4l-7.4,10.4h3.7
		c0,10.8,8.7,19.5,19.5,19.5c4.3,0,8.3-1.4,11.6-3.8L407.6,409.8z"/>
	<path class="st0" d="M419.6,400c0-10.8-8.7-19.5-19.5-19.5c-4.5,0-8.7,1.5-12,4.1l4.2,6c2.1-1.8,4.9-2.8,7.8-2.8
		c6.8,0,12.3,5.5,12.3,12.3h-4.2l7.4,10.4l7.4-10.4H419.6z"/>
</g>
</svg>
