<?xml version="1.0" encoding="utf-8"?>
<!-- Generator: Adobe Illustrator 14.0.0, SVG Export Plug-In . SVG Version: 6.00 Build 43363)  -->
<!DOCTYPE svg PUBLIC "-//W3C//DTD SVG 1.1//EN" "http://www.w3.org/Graphics/SVG/1.1/DTD/svg11.dtd">
<svg version="1.1" id="Layer_1" xmlns="http://www.w3.org/2000/svg" xmlns:xlink="http://www.w3.org/1999/xlink" x="0px" y="0px"
	 width="800px" height="800px" viewBox="0 0 800 800" enable-background="new 0 0 800 800" xml:space="preserve">
<g id="innerBG" display="none">
	<circle display="inline" fill="#68C1DD" cx="400" cy="400" r="390"/>
	<circle display="inline" fill="#3C3C3C" cx="400" cy="400" r="375"/>
</g>
<g id="circle" display="none">
	<path display="inline" fill="#666666" d="M400,10C184.61,10,10,184.609,10,400c0,215.391,174.61,390,390,390
		c215.393,0,390-174.609,390-390C790,184.609,615.393,10,400,10z M400,775C192.894,775,25,607.104,25,400
		C25,192.892,192.894,25,400,25c207.105,0,375,167.892,375,375C775,607.104,607.105,775,400,775z"/>
</g>
<g id="Layer_5_copy">
	<path fill="#F90000" d="M472,449.584V284.805H328v164.779c-46.482,25.482-78,74.867-78,131.616c0,82.842,67.157,150,150,150
		c82.841,0,150-67.158,150-150C550,524.451,518.482,475.066,472,449.584z"/>
	<circle opacity="0.7" fill="#EBEBEB" enable-background="new    " cx="330" cy="535" r="25"/>
</g>
<g id="Layer_6">
	<rect x="382.222" y="397" fill="#EBEBEB" width="79.999" height="30"/>
	<rect x="417.649" y="332.312" fill="#EBEBEB" width="45" height="30"/>
	<rect x="382.222" y="267.623" fill="#EBEBEB" width="79.999" height="30"/>
	<rect x="417.649" y="202.935" fill="#EBEBEB" width="44.57" height="30.001"/>
	<rect x="382.222" y="138.247" fill="#EBEBEB" width="79.999" height="30"/>
</g>
<g id="Layer_5">
	<path fill="none" stroke="#EBEBEB" stroke-width="20" d="M472,449.584V135.341c0-0.519-0.078-1.025-0.193-1.524
		c0.113-1.66,0.193-3.328,0.193-5.017c0-39.764-32.236-72-72-72s-72,32.236-72,72c0,1.689,0.079,3.359,0.193,5.019
		c-0.114,0.498-0.193,1.004-0.193,1.522v314.243c-46.482,25.482-78,74.867-78,131.616c0,82.842,67.157,150,150,150
		c82.841,0,150-67.158,150-150C550,524.451,518.482,475.066,472,449.584z"/>
</g>
</svg>
