<?xml version="1.0" encoding="utf-8"?>
<!-- Generator: Adobe Illustrator 17.0.0, SVG Export Plug-In . SVG Version: 6.00 Build 0)  -->
<!DOCTYPE svg PUBLIC "-//W3C//DTD SVG 1.1//EN" "http://www.w3.org/Graphics/SVG/1.1/DTD/svg11.dtd">
<svg version="1.1" id="Layer_1" xmlns="http://www.w3.org/2000/svg" xmlns:xlink="http://www.w3.org/1999/xlink" x="0px" y="0px"
	 width="50px" height="50px" viewBox="0 0 50 50" style="enable-background:new 0 0 50 50;" xml:space="preserve">
<style type="text/css">
	.st0{fill:#CDCCCC;}
</style>
<g>
	<path class="st0" d="M32.1,34.2c-1.9,1.5-4.3,2.3-6.9,2.3c-6.4,0-11.5-5.2-11.5-11.5h3.6l-7-9.8l-7,9.8h3.5
		c0,10.1,8.2,18.3,18.3,18.3c4.1,0,7.8-1.3,10.9-3.6L32.1,34.2z"/>
	<path class="st0" d="M43.4,25c0-10.1-8.2-18.3-18.3-18.3c-4.2,0-8.1,1.4-11.2,3.8l3.9,5.6c2-1.7,4.6-2.7,7.4-2.7
		c6.4,0,11.5,5.1,11.5,11.5h-3.9l7,9.8l7-9.8H43.4z"/>
</g>
</svg>
