<?xml version="1.0" encoding="utf-8"?>
<!-- Generator: Adobe Illustrator 17.0.0, SVG Export Plug-In . SVG Version: 6.00 Build 0)  -->
<!DOCTYPE svg PUBLIC "-//W3C//DTD SVG 1.1//EN" "http://www.w3.org/Graphics/SVG/1.1/DTD/svg11.dtd">
<svg version="1.1" id="Layer_1" xmlns="http://www.w3.org/2000/svg" xmlns:xlink="http://www.w3.org/1999/xlink" x="0px" y="0px"
	 width="50px" height="50px" viewBox="0 0 50 50" style="enable-background:new 0 0 50 50;" xml:space="preserve">
<style type="text/css">
	.st0{fill:#CDCCCC;}
</style>
<g>
	<path class="st0" d="M33,35.6c-2.1,1.6-4.8,2.6-7.7,2.6c-7,0-12.7-5.7-12.7-12.7h3.9L8.8,14.7L1.1,25.5H5
		c0,11.2,9.1,20.2,20.2,20.2c4.5,0,8.7-1.5,12-4L33,35.6z"/>
	<path class="st0" d="M45.5,25.5c0-11.2-9.1-20.2-20.2-20.2c-4.7,0-9,1.6-12.4,4.3l4.3,6.2c2.2-1.8,5-2.9,8.1-2.9
		c7,0,12.7,5.7,12.7,12.7h-4.3l7.7,10.8l7.7-10.8H45.5z"/>
</g>
</svg>
