G75*
%MOIN*%
%OFA0B0*%
%FSLAX24Y24*%
%IPPOS*%
%LPD*%
%AMOC8*
5,1,8,0,0,1.08239X$1,22.5*
%
%ADD10C,0.0000*%
%ADD11OC8,0.0600*%
%ADD12OC8,0.0520*%
%ADD13C,0.0520*%
%ADD14C,0.0240*%
%ADD15C,0.0500*%
%ADD16C,0.0120*%
D10*
X000100Y000100D02*
X000100Y019785D01*
X019785Y019785D01*
X019785Y000100D01*
X000100Y000100D01*
X000970Y001100D02*
X000972Y001150D01*
X000978Y001200D01*
X000988Y001249D01*
X001002Y001297D01*
X001019Y001344D01*
X001040Y001389D01*
X001065Y001433D01*
X001093Y001474D01*
X001125Y001513D01*
X001159Y001550D01*
X001196Y001584D01*
X001236Y001614D01*
X001278Y001641D01*
X001322Y001665D01*
X001368Y001686D01*
X001415Y001702D01*
X001463Y001715D01*
X001513Y001724D01*
X001562Y001729D01*
X001613Y001730D01*
X001663Y001727D01*
X001712Y001720D01*
X001761Y001709D01*
X001809Y001694D01*
X001855Y001676D01*
X001900Y001654D01*
X001943Y001628D01*
X001984Y001599D01*
X002023Y001567D01*
X002059Y001532D01*
X002091Y001494D01*
X002121Y001454D01*
X002148Y001411D01*
X002171Y001367D01*
X002190Y001321D01*
X002206Y001273D01*
X002218Y001224D01*
X002226Y001175D01*
X002230Y001125D01*
X002230Y001075D01*
X002226Y001025D01*
X002218Y000976D01*
X002206Y000927D01*
X002190Y000879D01*
X002171Y000833D01*
X002148Y000789D01*
X002121Y000746D01*
X002091Y000706D01*
X002059Y000668D01*
X002023Y000633D01*
X001984Y000601D01*
X001943Y000572D01*
X001900Y000546D01*
X001855Y000524D01*
X001809Y000506D01*
X001761Y000491D01*
X001712Y000480D01*
X001663Y000473D01*
X001613Y000470D01*
X001562Y000471D01*
X001513Y000476D01*
X001463Y000485D01*
X001415Y000498D01*
X001368Y000514D01*
X001322Y000535D01*
X001278Y000559D01*
X001236Y000586D01*
X001196Y000616D01*
X001159Y000650D01*
X001125Y000687D01*
X001093Y000726D01*
X001065Y000767D01*
X001040Y000811D01*
X001019Y000856D01*
X001002Y000903D01*
X000988Y000951D01*
X000978Y001000D01*
X000972Y001050D01*
X000970Y001100D01*
X000970Y008600D02*
X000972Y008650D01*
X000978Y008700D01*
X000988Y008749D01*
X001002Y008797D01*
X001019Y008844D01*
X001040Y008889D01*
X001065Y008933D01*
X001093Y008974D01*
X001125Y009013D01*
X001159Y009050D01*
X001196Y009084D01*
X001236Y009114D01*
X001278Y009141D01*
X001322Y009165D01*
X001368Y009186D01*
X001415Y009202D01*
X001463Y009215D01*
X001513Y009224D01*
X001562Y009229D01*
X001613Y009230D01*
X001663Y009227D01*
X001712Y009220D01*
X001761Y009209D01*
X001809Y009194D01*
X001855Y009176D01*
X001900Y009154D01*
X001943Y009128D01*
X001984Y009099D01*
X002023Y009067D01*
X002059Y009032D01*
X002091Y008994D01*
X002121Y008954D01*
X002148Y008911D01*
X002171Y008867D01*
X002190Y008821D01*
X002206Y008773D01*
X002218Y008724D01*
X002226Y008675D01*
X002230Y008625D01*
X002230Y008575D01*
X002226Y008525D01*
X002218Y008476D01*
X002206Y008427D01*
X002190Y008379D01*
X002171Y008333D01*
X002148Y008289D01*
X002121Y008246D01*
X002091Y008206D01*
X002059Y008168D01*
X002023Y008133D01*
X001984Y008101D01*
X001943Y008072D01*
X001900Y008046D01*
X001855Y008024D01*
X001809Y008006D01*
X001761Y007991D01*
X001712Y007980D01*
X001663Y007973D01*
X001613Y007970D01*
X001562Y007971D01*
X001513Y007976D01*
X001463Y007985D01*
X001415Y007998D01*
X001368Y008014D01*
X001322Y008035D01*
X001278Y008059D01*
X001236Y008086D01*
X001196Y008116D01*
X001159Y008150D01*
X001125Y008187D01*
X001093Y008226D01*
X001065Y008267D01*
X001040Y008311D01*
X001019Y008356D01*
X001002Y008403D01*
X000988Y008451D01*
X000978Y008500D01*
X000972Y008550D01*
X000970Y008600D01*
X000970Y011100D02*
X000972Y011150D01*
X000978Y011200D01*
X000988Y011249D01*
X001002Y011297D01*
X001019Y011344D01*
X001040Y011389D01*
X001065Y011433D01*
X001093Y011474D01*
X001125Y011513D01*
X001159Y011550D01*
X001196Y011584D01*
X001236Y011614D01*
X001278Y011641D01*
X001322Y011665D01*
X001368Y011686D01*
X001415Y011702D01*
X001463Y011715D01*
X001513Y011724D01*
X001562Y011729D01*
X001613Y011730D01*
X001663Y011727D01*
X001712Y011720D01*
X001761Y011709D01*
X001809Y011694D01*
X001855Y011676D01*
X001900Y011654D01*
X001943Y011628D01*
X001984Y011599D01*
X002023Y011567D01*
X002059Y011532D01*
X002091Y011494D01*
X002121Y011454D01*
X002148Y011411D01*
X002171Y011367D01*
X002190Y011321D01*
X002206Y011273D01*
X002218Y011224D01*
X002226Y011175D01*
X002230Y011125D01*
X002230Y011075D01*
X002226Y011025D01*
X002218Y010976D01*
X002206Y010927D01*
X002190Y010879D01*
X002171Y010833D01*
X002148Y010789D01*
X002121Y010746D01*
X002091Y010706D01*
X002059Y010668D01*
X002023Y010633D01*
X001984Y010601D01*
X001943Y010572D01*
X001900Y010546D01*
X001855Y010524D01*
X001809Y010506D01*
X001761Y010491D01*
X001712Y010480D01*
X001663Y010473D01*
X001613Y010470D01*
X001562Y010471D01*
X001513Y010476D01*
X001463Y010485D01*
X001415Y010498D01*
X001368Y010514D01*
X001322Y010535D01*
X001278Y010559D01*
X001236Y010586D01*
X001196Y010616D01*
X001159Y010650D01*
X001125Y010687D01*
X001093Y010726D01*
X001065Y010767D01*
X001040Y010811D01*
X001019Y010856D01*
X001002Y010903D01*
X000988Y010951D01*
X000978Y011000D01*
X000972Y011050D01*
X000970Y011100D01*
X000970Y018600D02*
X000972Y018650D01*
X000978Y018700D01*
X000988Y018749D01*
X001002Y018797D01*
X001019Y018844D01*
X001040Y018889D01*
X001065Y018933D01*
X001093Y018974D01*
X001125Y019013D01*
X001159Y019050D01*
X001196Y019084D01*
X001236Y019114D01*
X001278Y019141D01*
X001322Y019165D01*
X001368Y019186D01*
X001415Y019202D01*
X001463Y019215D01*
X001513Y019224D01*
X001562Y019229D01*
X001613Y019230D01*
X001663Y019227D01*
X001712Y019220D01*
X001761Y019209D01*
X001809Y019194D01*
X001855Y019176D01*
X001900Y019154D01*
X001943Y019128D01*
X001984Y019099D01*
X002023Y019067D01*
X002059Y019032D01*
X002091Y018994D01*
X002121Y018954D01*
X002148Y018911D01*
X002171Y018867D01*
X002190Y018821D01*
X002206Y018773D01*
X002218Y018724D01*
X002226Y018675D01*
X002230Y018625D01*
X002230Y018575D01*
X002226Y018525D01*
X002218Y018476D01*
X002206Y018427D01*
X002190Y018379D01*
X002171Y018333D01*
X002148Y018289D01*
X002121Y018246D01*
X002091Y018206D01*
X002059Y018168D01*
X002023Y018133D01*
X001984Y018101D01*
X001943Y018072D01*
X001900Y018046D01*
X001855Y018024D01*
X001809Y018006D01*
X001761Y017991D01*
X001712Y017980D01*
X001663Y017973D01*
X001613Y017970D01*
X001562Y017971D01*
X001513Y017976D01*
X001463Y017985D01*
X001415Y017998D01*
X001368Y018014D01*
X001322Y018035D01*
X001278Y018059D01*
X001236Y018086D01*
X001196Y018116D01*
X001159Y018150D01*
X001125Y018187D01*
X001093Y018226D01*
X001065Y018267D01*
X001040Y018311D01*
X001019Y018356D01*
X001002Y018403D01*
X000988Y018451D01*
X000978Y018500D01*
X000972Y018550D01*
X000970Y018600D01*
D11*
X002100Y017100D03*
X002100Y016100D03*
X002100Y015100D03*
X002100Y014100D03*
X002100Y013100D03*
X003100Y013100D03*
X003100Y014100D03*
X003100Y015100D03*
X003100Y016100D03*
X003100Y017100D03*
X003100Y007100D03*
X003100Y006100D03*
X003100Y005100D03*
X003100Y004100D03*
X003100Y003100D03*
X002100Y003100D03*
X002100Y004100D03*
X002100Y005100D03*
X002100Y006100D03*
X002100Y007100D03*
X013100Y003600D03*
X013100Y002600D03*
X014100Y002600D03*
X014100Y003600D03*
X015100Y003600D03*
X015100Y002600D03*
X016100Y002600D03*
X016100Y003600D03*
X016100Y012600D03*
X016100Y013600D03*
X015100Y013600D03*
X015100Y012600D03*
X014100Y012600D03*
X014100Y013600D03*
X013100Y013600D03*
X013100Y012600D03*
D12*
X007600Y015000D03*
X006600Y017500D03*
X006600Y007500D03*
X007600Y005000D03*
D13*
X007600Y004200D03*
X006600Y006700D03*
X007600Y014200D03*
X006600Y016700D03*
D14*
X006931Y016080D02*
X014604Y016080D01*
X014515Y015991D02*
X014410Y015737D01*
X014410Y015463D01*
X014515Y015209D01*
X014709Y015015D01*
X014963Y014910D01*
X015237Y014910D01*
X015491Y015015D01*
X015516Y015040D01*
X015868Y015040D01*
X016540Y014368D01*
X016540Y013332D01*
X016477Y013269D01*
X016407Y013340D01*
X015840Y013340D01*
X015840Y013907D01*
X015407Y014340D01*
X014793Y014340D01*
X014600Y014147D01*
X014407Y014340D01*
X014360Y014340D01*
X014100Y014600D01*
X011100Y014600D01*
X010600Y014100D01*
X008300Y014100D01*
X008300Y014339D01*
X008193Y014597D01*
X007997Y014793D01*
X007739Y014900D01*
X007461Y014900D01*
X007203Y014793D01*
X007007Y014597D01*
X006900Y014339D01*
X006900Y014300D01*
X006100Y015100D01*
X005600Y015100D01*
X004600Y016100D01*
X003840Y016100D01*
X003840Y016407D01*
X003647Y016600D01*
X003840Y016793D01*
X003840Y017407D01*
X003407Y017840D01*
X002793Y017840D01*
X002360Y017407D01*
X002360Y016793D01*
X002553Y016600D01*
X002360Y016407D01*
X002360Y016100D01*
X001600Y016100D01*
X001600Y017450D01*
X001751Y017450D01*
X002044Y017528D01*
X002306Y017680D01*
X002520Y017894D01*
X002672Y018156D01*
X002750Y018449D01*
X002750Y018750D01*
X003100Y019100D01*
X018100Y019100D01*
X019100Y018100D01*
X019100Y012100D01*
X018100Y011100D01*
X015100Y011100D01*
X014704Y011496D01*
X014883Y011676D01*
X015024Y011817D01*
X015042Y011860D01*
X015407Y011860D01*
X015600Y012053D01*
X015793Y011860D01*
X016407Y011860D01*
X016587Y012040D01*
X016711Y012040D01*
X016917Y012125D01*
X017417Y012625D01*
X017575Y012783D01*
X017660Y012989D01*
X017660Y014711D01*
X017575Y014917D01*
X016575Y015917D01*
X016417Y016075D01*
X016211Y016160D01*
X015516Y016160D01*
X015491Y016185D01*
X015237Y016290D01*
X014963Y016290D01*
X014709Y016185D01*
X014515Y015991D01*
X014453Y015841D02*
X004859Y015841D01*
X005097Y015603D02*
X014410Y015603D01*
X014451Y015364D02*
X005336Y015364D01*
X005574Y015126D02*
X014599Y015126D01*
X015100Y015600D02*
X016100Y015600D01*
X017100Y014600D01*
X017100Y013100D01*
X016600Y012600D01*
X016100Y012600D01*
X016572Y012025D02*
X019025Y012025D01*
X019100Y012264D02*
X017055Y012264D01*
X017294Y012502D02*
X019100Y012502D01*
X019100Y012741D02*
X017532Y012741D01*
X017656Y012979D02*
X019100Y012979D01*
X019100Y013218D02*
X017660Y013218D01*
X017660Y013456D02*
X019100Y013456D01*
X019100Y013695D02*
X017660Y013695D01*
X017660Y013933D02*
X019100Y013933D01*
X019100Y014172D02*
X017660Y014172D01*
X017660Y014410D02*
X019100Y014410D01*
X019100Y014649D02*
X017660Y014649D01*
X017587Y014887D02*
X019100Y014887D01*
X019100Y015126D02*
X017366Y015126D01*
X017128Y015364D02*
X019100Y015364D01*
X019100Y015603D02*
X016889Y015603D01*
X016651Y015841D02*
X019100Y015841D01*
X019100Y016080D02*
X016406Y016080D01*
X016021Y014887D02*
X007771Y014887D01*
X008141Y014649D02*
X016260Y014649D01*
X016498Y014410D02*
X014290Y014410D01*
X014575Y014172D02*
X014625Y014172D01*
X015575Y014172D02*
X016540Y014172D01*
X016540Y013933D02*
X015814Y013933D01*
X015840Y013695D02*
X016540Y013695D01*
X016540Y013456D02*
X015840Y013456D01*
X015628Y012025D02*
X015572Y012025D01*
X014994Y011787D02*
X018787Y011787D01*
X018548Y011548D02*
X014755Y011548D01*
X014890Y011310D02*
X018310Y011310D01*
X018100Y009100D02*
X019100Y008100D01*
X019100Y002100D01*
X018100Y001100D01*
X015100Y001100D01*
X014704Y001496D01*
X014883Y001676D01*
X015024Y001817D01*
X015042Y001860D01*
X015407Y001860D01*
X015600Y002053D01*
X015793Y001860D01*
X016407Y001860D01*
X016587Y002040D01*
X016711Y002040D01*
X016917Y002125D01*
X017417Y002625D01*
X017575Y002783D01*
X017660Y002989D01*
X017660Y004711D01*
X017575Y004917D01*
X016575Y005917D01*
X016417Y006075D01*
X016211Y006160D01*
X015516Y006160D01*
X015491Y006185D01*
X015237Y006290D01*
X014963Y006290D01*
X014709Y006185D01*
X014515Y005991D01*
X014410Y005737D01*
X014410Y005463D01*
X014515Y005209D01*
X014709Y005015D01*
X014963Y004910D01*
X015237Y004910D01*
X015491Y005015D01*
X015516Y005040D01*
X015868Y005040D01*
X016540Y004368D01*
X016540Y003332D01*
X016477Y003269D01*
X016407Y003340D01*
X015840Y003340D01*
X015840Y003907D01*
X015407Y004340D01*
X014793Y004340D01*
X014600Y004147D01*
X014407Y004340D01*
X014360Y004340D01*
X014100Y004600D01*
X011600Y004600D01*
X011100Y004100D01*
X008300Y004100D01*
X008300Y004339D01*
X008193Y004597D01*
X007997Y004793D01*
X007739Y004900D01*
X007461Y004900D01*
X007203Y004793D01*
X007007Y004597D01*
X006900Y004339D01*
X006900Y004300D01*
X006100Y005100D01*
X005600Y005100D01*
X004600Y006100D01*
X003840Y006100D01*
X003840Y006407D01*
X003647Y006600D01*
X003840Y006793D01*
X003840Y007407D01*
X003407Y007840D01*
X002793Y007840D01*
X002360Y007407D01*
X002360Y006793D01*
X002553Y006600D01*
X002360Y006407D01*
X002360Y006100D01*
X001600Y006100D01*
X001600Y007450D01*
X001751Y007450D01*
X002044Y007528D01*
X002306Y007680D01*
X002520Y007894D01*
X002672Y008156D01*
X002750Y008449D01*
X002750Y008750D01*
X003100Y009100D01*
X018100Y009100D01*
X018275Y008925D02*
X002925Y008925D01*
X002750Y008686D02*
X018514Y008686D01*
X018752Y008448D02*
X002750Y008448D01*
X002686Y008209D02*
X018991Y008209D01*
X019100Y007971D02*
X002564Y007971D01*
X002685Y007732D02*
X002358Y007732D01*
X002447Y007494D02*
X001913Y007494D01*
X001600Y007255D02*
X002360Y007255D01*
X002360Y007017D02*
X001600Y007017D01*
X001600Y006778D02*
X002375Y006778D01*
X002493Y006540D02*
X001600Y006540D01*
X001600Y006301D02*
X002360Y006301D01*
X003707Y006540D02*
X005909Y006540D01*
X005900Y006561D02*
X006007Y006303D01*
X006203Y006107D01*
X006461Y006000D01*
X006739Y006000D01*
X006997Y006107D01*
X007193Y006303D01*
X007300Y006561D01*
X007300Y006839D01*
X007193Y007097D01*
X006997Y007293D01*
X006739Y007400D01*
X006461Y007400D01*
X006203Y007293D01*
X006007Y007097D01*
X005900Y006839D01*
X005900Y006561D01*
X006009Y006301D02*
X003840Y006301D01*
X003825Y006778D02*
X005900Y006778D01*
X005973Y007017D02*
X003840Y007017D01*
X003840Y007255D02*
X006165Y007255D01*
X007035Y007255D02*
X019100Y007255D01*
X019100Y007017D02*
X007227Y007017D01*
X007300Y006778D02*
X019100Y006778D01*
X019100Y006540D02*
X007291Y006540D01*
X007191Y006301D02*
X019100Y006301D01*
X019100Y006063D02*
X016429Y006063D01*
X016668Y005824D02*
X019100Y005824D01*
X019100Y005586D02*
X016906Y005586D01*
X017145Y005347D02*
X019100Y005347D01*
X019100Y005109D02*
X017383Y005109D01*
X017594Y004870D02*
X019100Y004870D01*
X019100Y004632D02*
X017660Y004632D01*
X017660Y004393D02*
X019100Y004393D01*
X019100Y004155D02*
X017660Y004155D01*
X017660Y003916D02*
X019100Y003916D01*
X019100Y003678D02*
X017660Y003678D01*
X017660Y003439D02*
X019100Y003439D01*
X019100Y003201D02*
X017660Y003201D01*
X017649Y002962D02*
X019100Y002962D01*
X019100Y002724D02*
X017515Y002724D01*
X017277Y002485D02*
X019100Y002485D01*
X019100Y002247D02*
X017038Y002247D01*
X016555Y002008D02*
X019008Y002008D01*
X018770Y001770D02*
X014977Y001770D01*
X014738Y001531D02*
X018531Y001531D01*
X018293Y001293D02*
X014907Y001293D01*
X015555Y002008D02*
X015645Y002008D01*
X016100Y002600D02*
X016600Y002600D01*
X017100Y003100D01*
X017100Y004600D01*
X016100Y005600D01*
X015100Y005600D01*
X014587Y006063D02*
X006890Y006063D01*
X006310Y006063D02*
X004637Y006063D01*
X004876Y005824D02*
X014446Y005824D01*
X014410Y005586D02*
X005114Y005586D01*
X005353Y005347D02*
X014458Y005347D01*
X014616Y005109D02*
X005591Y005109D01*
X006330Y004870D02*
X007388Y004870D01*
X007042Y004632D02*
X006568Y004632D01*
X006807Y004393D02*
X006922Y004393D01*
X007812Y004870D02*
X016038Y004870D01*
X016277Y004632D02*
X008158Y004632D01*
X008278Y004393D02*
X011393Y004393D01*
X011155Y004155D02*
X008300Y004155D01*
X003753Y007494D02*
X019100Y007494D01*
X019100Y007732D02*
X003515Y007732D01*
X008300Y014172D02*
X010672Y014172D01*
X010910Y014410D02*
X008271Y014410D01*
X007429Y014887D02*
X006313Y014887D01*
X006551Y014649D02*
X007059Y014649D01*
X006929Y014410D02*
X006790Y014410D01*
X006739Y016000D02*
X006461Y016000D01*
X006203Y016107D01*
X006007Y016303D01*
X005900Y016561D01*
X005900Y016839D01*
X006007Y017097D01*
X006203Y017293D01*
X006461Y017400D01*
X006739Y017400D01*
X006997Y017293D01*
X007193Y017097D01*
X007300Y016839D01*
X007300Y016561D01*
X007193Y016303D01*
X006997Y016107D01*
X006739Y016000D01*
X006269Y016080D02*
X004620Y016080D01*
X003840Y016318D02*
X006001Y016318D01*
X005902Y016557D02*
X003690Y016557D01*
X003840Y016795D02*
X005900Y016795D01*
X005980Y017034D02*
X003840Y017034D01*
X003840Y017272D02*
X006182Y017272D01*
X007018Y017272D02*
X019100Y017272D01*
X019100Y017034D02*
X007220Y017034D01*
X007300Y016795D02*
X019100Y016795D01*
X019100Y016557D02*
X007298Y016557D01*
X007199Y016318D02*
X019100Y016318D01*
X019100Y017511D02*
X003736Y017511D01*
X003497Y017749D02*
X019100Y017749D01*
X019100Y017988D02*
X002574Y017988D01*
X002690Y018226D02*
X018974Y018226D01*
X018735Y018465D02*
X002750Y018465D01*
X002750Y018703D02*
X018497Y018703D01*
X018258Y018942D02*
X002942Y018942D01*
X002703Y017749D02*
X002375Y017749D01*
X002464Y017511D02*
X001977Y017511D01*
X001600Y017272D02*
X002360Y017272D01*
X002360Y017034D02*
X001600Y017034D01*
X001600Y016795D02*
X002360Y016795D01*
X002510Y016557D02*
X001600Y016557D01*
X001600Y016318D02*
X002360Y016318D01*
X014307Y004393D02*
X016515Y004393D01*
X016540Y004155D02*
X015592Y004155D01*
X015831Y003916D02*
X016540Y003916D01*
X016540Y003678D02*
X015840Y003678D01*
X015840Y003439D02*
X016540Y003439D01*
X014608Y004155D02*
X014592Y004155D01*
D15*
X015100Y005600D03*
X015100Y015600D03*
D16*
X015100Y013600D02*
X014600Y013100D01*
X014600Y012100D01*
X013600Y011100D01*
X003600Y011100D01*
X002600Y012100D01*
X001850Y012100D01*
X001100Y012850D01*
X001100Y014100D01*
X002100Y015100D01*
X002600Y014600D02*
X004100Y014600D01*
X005600Y013100D01*
X013600Y013100D01*
X014100Y013600D01*
X014100Y012600D02*
X013600Y012100D01*
X005600Y012100D01*
X003600Y014100D01*
X003100Y014100D01*
X002600Y014600D02*
X002100Y014100D01*
X002100Y005100D02*
X001100Y004100D01*
X001100Y002850D01*
X001850Y002100D01*
X002600Y002100D01*
X003600Y001100D01*
X013600Y001100D01*
X014600Y002100D01*
X014600Y003100D01*
X015100Y003600D01*
X014100Y003600D02*
X013600Y003100D01*
X005600Y003100D01*
X004100Y004600D01*
X002600Y004600D01*
X002100Y004100D01*
X003100Y004100D02*
X003600Y004100D01*
X005600Y002100D01*
X013600Y002100D01*
X014100Y002600D01*
M02*
