G75*
%MOIN*%
%OFA0B0*%
%FSLAX24Y24*%
%IPPOS*%
%LPD*%
%AMOC8*
5,1,8,0,0,1.08239X$1,22.5*
%
%ADD10C,0.0000*%
%ADD11OC8,0.0600*%
%ADD12R,0.0787X0.0591*%
%ADD13R,0.0787X0.1496*%
%ADD14OC8,0.0520*%
%ADD15C,0.0520*%
%ADD16R,0.0630X0.0710*%
%ADD17C,0.0240*%
%ADD18C,0.0500*%
%ADD19C,0.0120*%
D10*
X000100Y000100D02*
X000100Y019785D01*
X019785Y019785D01*
X019785Y000100D01*
X000100Y000100D01*
X000970Y001100D02*
X000972Y001150D01*
X000978Y001200D01*
X000988Y001249D01*
X001002Y001297D01*
X001019Y001344D01*
X001040Y001389D01*
X001065Y001433D01*
X001093Y001474D01*
X001125Y001513D01*
X001159Y001550D01*
X001196Y001584D01*
X001236Y001614D01*
X001278Y001641D01*
X001322Y001665D01*
X001368Y001686D01*
X001415Y001702D01*
X001463Y001715D01*
X001513Y001724D01*
X001562Y001729D01*
X001613Y001730D01*
X001663Y001727D01*
X001712Y001720D01*
X001761Y001709D01*
X001809Y001694D01*
X001855Y001676D01*
X001900Y001654D01*
X001943Y001628D01*
X001984Y001599D01*
X002023Y001567D01*
X002059Y001532D01*
X002091Y001494D01*
X002121Y001454D01*
X002148Y001411D01*
X002171Y001367D01*
X002190Y001321D01*
X002206Y001273D01*
X002218Y001224D01*
X002226Y001175D01*
X002230Y001125D01*
X002230Y001075D01*
X002226Y001025D01*
X002218Y000976D01*
X002206Y000927D01*
X002190Y000879D01*
X002171Y000833D01*
X002148Y000789D01*
X002121Y000746D01*
X002091Y000706D01*
X002059Y000668D01*
X002023Y000633D01*
X001984Y000601D01*
X001943Y000572D01*
X001900Y000546D01*
X001855Y000524D01*
X001809Y000506D01*
X001761Y000491D01*
X001712Y000480D01*
X001663Y000473D01*
X001613Y000470D01*
X001562Y000471D01*
X001513Y000476D01*
X001463Y000485D01*
X001415Y000498D01*
X001368Y000514D01*
X001322Y000535D01*
X001278Y000559D01*
X001236Y000586D01*
X001196Y000616D01*
X001159Y000650D01*
X001125Y000687D01*
X001093Y000726D01*
X001065Y000767D01*
X001040Y000811D01*
X001019Y000856D01*
X001002Y000903D01*
X000988Y000951D01*
X000978Y001000D01*
X000972Y001050D01*
X000970Y001100D01*
X000970Y008600D02*
X000972Y008650D01*
X000978Y008700D01*
X000988Y008749D01*
X001002Y008797D01*
X001019Y008844D01*
X001040Y008889D01*
X001065Y008933D01*
X001093Y008974D01*
X001125Y009013D01*
X001159Y009050D01*
X001196Y009084D01*
X001236Y009114D01*
X001278Y009141D01*
X001322Y009165D01*
X001368Y009186D01*
X001415Y009202D01*
X001463Y009215D01*
X001513Y009224D01*
X001562Y009229D01*
X001613Y009230D01*
X001663Y009227D01*
X001712Y009220D01*
X001761Y009209D01*
X001809Y009194D01*
X001855Y009176D01*
X001900Y009154D01*
X001943Y009128D01*
X001984Y009099D01*
X002023Y009067D01*
X002059Y009032D01*
X002091Y008994D01*
X002121Y008954D01*
X002148Y008911D01*
X002171Y008867D01*
X002190Y008821D01*
X002206Y008773D01*
X002218Y008724D01*
X002226Y008675D01*
X002230Y008625D01*
X002230Y008575D01*
X002226Y008525D01*
X002218Y008476D01*
X002206Y008427D01*
X002190Y008379D01*
X002171Y008333D01*
X002148Y008289D01*
X002121Y008246D01*
X002091Y008206D01*
X002059Y008168D01*
X002023Y008133D01*
X001984Y008101D01*
X001943Y008072D01*
X001900Y008046D01*
X001855Y008024D01*
X001809Y008006D01*
X001761Y007991D01*
X001712Y007980D01*
X001663Y007973D01*
X001613Y007970D01*
X001562Y007971D01*
X001513Y007976D01*
X001463Y007985D01*
X001415Y007998D01*
X001368Y008014D01*
X001322Y008035D01*
X001278Y008059D01*
X001236Y008086D01*
X001196Y008116D01*
X001159Y008150D01*
X001125Y008187D01*
X001093Y008226D01*
X001065Y008267D01*
X001040Y008311D01*
X001019Y008356D01*
X001002Y008403D01*
X000988Y008451D01*
X000978Y008500D01*
X000972Y008550D01*
X000970Y008600D01*
X000970Y011100D02*
X000972Y011150D01*
X000978Y011200D01*
X000988Y011249D01*
X001002Y011297D01*
X001019Y011344D01*
X001040Y011389D01*
X001065Y011433D01*
X001093Y011474D01*
X001125Y011513D01*
X001159Y011550D01*
X001196Y011584D01*
X001236Y011614D01*
X001278Y011641D01*
X001322Y011665D01*
X001368Y011686D01*
X001415Y011702D01*
X001463Y011715D01*
X001513Y011724D01*
X001562Y011729D01*
X001613Y011730D01*
X001663Y011727D01*
X001712Y011720D01*
X001761Y011709D01*
X001809Y011694D01*
X001855Y011676D01*
X001900Y011654D01*
X001943Y011628D01*
X001984Y011599D01*
X002023Y011567D01*
X002059Y011532D01*
X002091Y011494D01*
X002121Y011454D01*
X002148Y011411D01*
X002171Y011367D01*
X002190Y011321D01*
X002206Y011273D01*
X002218Y011224D01*
X002226Y011175D01*
X002230Y011125D01*
X002230Y011075D01*
X002226Y011025D01*
X002218Y010976D01*
X002206Y010927D01*
X002190Y010879D01*
X002171Y010833D01*
X002148Y010789D01*
X002121Y010746D01*
X002091Y010706D01*
X002059Y010668D01*
X002023Y010633D01*
X001984Y010601D01*
X001943Y010572D01*
X001900Y010546D01*
X001855Y010524D01*
X001809Y010506D01*
X001761Y010491D01*
X001712Y010480D01*
X001663Y010473D01*
X001613Y010470D01*
X001562Y010471D01*
X001513Y010476D01*
X001463Y010485D01*
X001415Y010498D01*
X001368Y010514D01*
X001322Y010535D01*
X001278Y010559D01*
X001236Y010586D01*
X001196Y010616D01*
X001159Y010650D01*
X001125Y010687D01*
X001093Y010726D01*
X001065Y010767D01*
X001040Y010811D01*
X001019Y010856D01*
X001002Y010903D01*
X000988Y010951D01*
X000978Y011000D01*
X000972Y011050D01*
X000970Y011100D01*
X000970Y018600D02*
X000972Y018650D01*
X000978Y018700D01*
X000988Y018749D01*
X001002Y018797D01*
X001019Y018844D01*
X001040Y018889D01*
X001065Y018933D01*
X001093Y018974D01*
X001125Y019013D01*
X001159Y019050D01*
X001196Y019084D01*
X001236Y019114D01*
X001278Y019141D01*
X001322Y019165D01*
X001368Y019186D01*
X001415Y019202D01*
X001463Y019215D01*
X001513Y019224D01*
X001562Y019229D01*
X001613Y019230D01*
X001663Y019227D01*
X001712Y019220D01*
X001761Y019209D01*
X001809Y019194D01*
X001855Y019176D01*
X001900Y019154D01*
X001943Y019128D01*
X001984Y019099D01*
X002023Y019067D01*
X002059Y019032D01*
X002091Y018994D01*
X002121Y018954D01*
X002148Y018911D01*
X002171Y018867D01*
X002190Y018821D01*
X002206Y018773D01*
X002218Y018724D01*
X002226Y018675D01*
X002230Y018625D01*
X002230Y018575D01*
X002226Y018525D01*
X002218Y018476D01*
X002206Y018427D01*
X002190Y018379D01*
X002171Y018333D01*
X002148Y018289D01*
X002121Y018246D01*
X002091Y018206D01*
X002059Y018168D01*
X002023Y018133D01*
X001984Y018101D01*
X001943Y018072D01*
X001900Y018046D01*
X001855Y018024D01*
X001809Y018006D01*
X001761Y017991D01*
X001712Y017980D01*
X001663Y017973D01*
X001613Y017970D01*
X001562Y017971D01*
X001513Y017976D01*
X001463Y017985D01*
X001415Y017998D01*
X001368Y018014D01*
X001322Y018035D01*
X001278Y018059D01*
X001236Y018086D01*
X001196Y018116D01*
X001159Y018150D01*
X001125Y018187D01*
X001093Y018226D01*
X001065Y018267D01*
X001040Y018311D01*
X001019Y018356D01*
X001002Y018403D01*
X000988Y018451D01*
X000978Y018500D01*
X000972Y018550D01*
X000970Y018600D01*
D11*
X002100Y017100D03*
X002100Y016100D03*
X002100Y015100D03*
X002100Y014100D03*
X002100Y013100D03*
X003100Y013100D03*
X003100Y014100D03*
X003100Y015100D03*
X003100Y016100D03*
X003100Y017100D03*
X003100Y007100D03*
X003100Y006100D03*
X003100Y005100D03*
X003100Y004100D03*
X003100Y003100D03*
X002100Y003100D03*
X002100Y004100D03*
X002100Y005100D03*
X002100Y006100D03*
X002100Y007100D03*
X013100Y003600D03*
X013100Y002600D03*
X014100Y002600D03*
X014100Y003600D03*
X015100Y003600D03*
X015100Y002600D03*
X016100Y002600D03*
X016100Y003600D03*
X016100Y012600D03*
X016100Y013600D03*
X015100Y013600D03*
X015100Y012600D03*
X014100Y012600D03*
X014100Y013600D03*
X013100Y013600D03*
X013100Y012600D03*
D12*
X011860Y016194D03*
X011860Y017100D03*
X011860Y018006D03*
X009600Y017691D03*
X009600Y016509D03*
X011860Y008006D03*
X011860Y007100D03*
X011860Y006194D03*
X009600Y006509D03*
X009600Y007691D03*
X018100Y003691D03*
X018100Y002509D03*
X018100Y012509D03*
X018100Y013691D03*
D13*
X014340Y017100D03*
X014340Y007100D03*
D14*
X007600Y005000D03*
X006600Y007500D03*
X007600Y015000D03*
X006600Y017500D03*
D15*
X006600Y016700D03*
X007600Y014200D03*
X006600Y006700D03*
X007600Y004200D03*
D16*
X016540Y005600D03*
X017660Y005600D03*
X017660Y007600D03*
X016540Y007600D03*
X016540Y015600D03*
X017660Y015600D03*
X017660Y017600D03*
X016540Y017600D03*
D17*
X016540Y016660D01*
X016600Y016600D01*
X017600Y016600D01*
X017600Y015660D01*
X017660Y015600D01*
X016540Y015600D02*
X015100Y015600D01*
X015100Y016100D01*
X014340Y016860D01*
X014340Y017100D01*
X015100Y015600D02*
X015100Y015100D01*
X014600Y014600D01*
X011100Y014600D01*
X010700Y014200D01*
X007600Y014200D01*
X006500Y014200D01*
X004600Y016100D01*
X003100Y016100D01*
X002100Y016100D02*
X002100Y017100D01*
X002100Y017350D01*
X002850Y018100D01*
X006000Y018100D01*
X006600Y017500D01*
X007106Y018006D01*
X009600Y018006D01*
X009600Y017691D01*
X009600Y018006D02*
X011860Y018006D01*
X011694Y018006D01*
X011600Y018100D01*
X012600Y018100D01*
X013100Y018600D01*
X017100Y018600D01*
X017600Y018100D01*
X017600Y017660D01*
X017660Y017600D01*
X017660Y017540D01*
X018600Y016600D01*
X018600Y014191D01*
X018100Y013691D01*
X016191Y013691D01*
X016100Y013600D01*
X016100Y012600D02*
X016191Y012509D01*
X018100Y012509D01*
X017100Y008600D02*
X017600Y008100D01*
X017600Y007660D01*
X017660Y007600D01*
X017660Y007540D01*
X018600Y006600D01*
X018600Y004191D01*
X018600Y004100D02*
X018100Y003600D01*
X018100Y003691D02*
X016191Y003691D01*
X016100Y003600D01*
X016100Y002600D02*
X016191Y002509D01*
X018100Y002509D01*
X017660Y005600D02*
X017600Y005660D01*
X017600Y006600D01*
X016600Y006600D01*
X016540Y006660D01*
X016540Y007600D01*
X017100Y008600D02*
X013100Y008600D01*
X012506Y008006D01*
X011860Y008006D01*
X009600Y008006D01*
X009600Y007691D01*
X009600Y008006D02*
X007106Y008006D01*
X006600Y007500D01*
X006000Y008100D01*
X002850Y008100D01*
X002100Y007350D01*
X002100Y007100D01*
X002100Y006100D01*
X003100Y006100D02*
X004600Y006100D01*
X006500Y004200D01*
X007600Y004200D01*
X011200Y004200D01*
X011600Y004600D01*
X014600Y004600D01*
X015100Y005100D01*
X015100Y005600D01*
X016540Y005600D01*
X015100Y005600D02*
X015100Y006100D01*
X014340Y006860D01*
X014340Y007100D01*
X011860Y006194D02*
X011694Y006194D01*
X011600Y006100D01*
X011100Y006100D01*
X010600Y006600D01*
X009691Y006600D01*
X009600Y006509D01*
X006791Y006509D01*
X006600Y006700D01*
X006500Y006600D01*
X005600Y006600D01*
X005100Y007100D01*
X003100Y007100D01*
X011006Y016194D02*
X010600Y016600D01*
X009691Y016600D01*
X009600Y016509D01*
X006791Y016509D01*
X006600Y016700D01*
X005500Y016700D01*
X005100Y017100D01*
X003100Y017100D01*
X011006Y016194D02*
X011860Y016194D01*
D18*
X015100Y015600D03*
X015100Y005600D03*
D19*
X014350Y004100D02*
X012100Y004100D01*
X011600Y003600D01*
X006100Y003600D01*
X004600Y005100D01*
X003100Y005100D01*
X003600Y003600D02*
X002600Y003600D01*
X002100Y003100D01*
X003100Y003100D02*
X004600Y001600D01*
X012100Y001600D01*
X013100Y002600D01*
X013100Y003600D02*
X012100Y002600D01*
X004600Y002600D01*
X003600Y003600D01*
X004600Y011600D02*
X012100Y011600D01*
X013100Y012600D01*
X013100Y013600D02*
X012100Y012600D01*
X004600Y012600D01*
X003600Y013600D01*
X002600Y013600D01*
X002100Y013100D01*
X003100Y013100D02*
X004600Y011600D01*
X006100Y013600D02*
X011600Y013600D01*
X012100Y014100D01*
X014350Y014100D01*
X014600Y013850D01*
X014600Y013100D01*
X015100Y012600D01*
X014350Y004100D02*
X014600Y003850D01*
X014600Y003100D01*
X015100Y002600D01*
X006100Y013600D02*
X004600Y015100D01*
X003100Y015100D01*
M02*
