G75*
%MOIN*%
%OFA0B0*%
%FSLAX24Y24*%
%IPPOS*%
%LPD*%
%AMOC8*
5,1,8,0,0,1.08239X$1,22.5*
%
%ADD10C,0.0000*%
%ADD11C,0.0160*%
%ADD12C,0.0030*%
%ADD13C,0.0060*%
%ADD14C,0.0080*%
%ADD15C,0.0040*%
%ADD16R,0.0079X0.0079*%
%ADD17R,0.0059X0.0098*%
D10*
X000100Y000100D02*
X000100Y019785D01*
X019785Y019785D01*
X019785Y000100D01*
X000100Y000100D01*
X000970Y001100D02*
X000972Y001150D01*
X000978Y001200D01*
X000988Y001249D01*
X001002Y001297D01*
X001019Y001344D01*
X001040Y001389D01*
X001065Y001433D01*
X001093Y001474D01*
X001125Y001513D01*
X001159Y001550D01*
X001196Y001584D01*
X001236Y001614D01*
X001278Y001641D01*
X001322Y001665D01*
X001368Y001686D01*
X001415Y001702D01*
X001463Y001715D01*
X001513Y001724D01*
X001562Y001729D01*
X001613Y001730D01*
X001663Y001727D01*
X001712Y001720D01*
X001761Y001709D01*
X001809Y001694D01*
X001855Y001676D01*
X001900Y001654D01*
X001943Y001628D01*
X001984Y001599D01*
X002023Y001567D01*
X002059Y001532D01*
X002091Y001494D01*
X002121Y001454D01*
X002148Y001411D01*
X002171Y001367D01*
X002190Y001321D01*
X002206Y001273D01*
X002218Y001224D01*
X002226Y001175D01*
X002230Y001125D01*
X002230Y001075D01*
X002226Y001025D01*
X002218Y000976D01*
X002206Y000927D01*
X002190Y000879D01*
X002171Y000833D01*
X002148Y000789D01*
X002121Y000746D01*
X002091Y000706D01*
X002059Y000668D01*
X002023Y000633D01*
X001984Y000601D01*
X001943Y000572D01*
X001900Y000546D01*
X001855Y000524D01*
X001809Y000506D01*
X001761Y000491D01*
X001712Y000480D01*
X001663Y000473D01*
X001613Y000470D01*
X001562Y000471D01*
X001513Y000476D01*
X001463Y000485D01*
X001415Y000498D01*
X001368Y000514D01*
X001322Y000535D01*
X001278Y000559D01*
X001236Y000586D01*
X001196Y000616D01*
X001159Y000650D01*
X001125Y000687D01*
X001093Y000726D01*
X001065Y000767D01*
X001040Y000811D01*
X001019Y000856D01*
X001002Y000903D01*
X000988Y000951D01*
X000978Y001000D01*
X000972Y001050D01*
X000970Y001100D01*
X000970Y008600D02*
X000972Y008650D01*
X000978Y008700D01*
X000988Y008749D01*
X001002Y008797D01*
X001019Y008844D01*
X001040Y008889D01*
X001065Y008933D01*
X001093Y008974D01*
X001125Y009013D01*
X001159Y009050D01*
X001196Y009084D01*
X001236Y009114D01*
X001278Y009141D01*
X001322Y009165D01*
X001368Y009186D01*
X001415Y009202D01*
X001463Y009215D01*
X001513Y009224D01*
X001562Y009229D01*
X001613Y009230D01*
X001663Y009227D01*
X001712Y009220D01*
X001761Y009209D01*
X001809Y009194D01*
X001855Y009176D01*
X001900Y009154D01*
X001943Y009128D01*
X001984Y009099D01*
X002023Y009067D01*
X002059Y009032D01*
X002091Y008994D01*
X002121Y008954D01*
X002148Y008911D01*
X002171Y008867D01*
X002190Y008821D01*
X002206Y008773D01*
X002218Y008724D01*
X002226Y008675D01*
X002230Y008625D01*
X002230Y008575D01*
X002226Y008525D01*
X002218Y008476D01*
X002206Y008427D01*
X002190Y008379D01*
X002171Y008333D01*
X002148Y008289D01*
X002121Y008246D01*
X002091Y008206D01*
X002059Y008168D01*
X002023Y008133D01*
X001984Y008101D01*
X001943Y008072D01*
X001900Y008046D01*
X001855Y008024D01*
X001809Y008006D01*
X001761Y007991D01*
X001712Y007980D01*
X001663Y007973D01*
X001613Y007970D01*
X001562Y007971D01*
X001513Y007976D01*
X001463Y007985D01*
X001415Y007998D01*
X001368Y008014D01*
X001322Y008035D01*
X001278Y008059D01*
X001236Y008086D01*
X001196Y008116D01*
X001159Y008150D01*
X001125Y008187D01*
X001093Y008226D01*
X001065Y008267D01*
X001040Y008311D01*
X001019Y008356D01*
X001002Y008403D01*
X000988Y008451D01*
X000978Y008500D01*
X000972Y008550D01*
X000970Y008600D01*
X000970Y011100D02*
X000972Y011150D01*
X000978Y011200D01*
X000988Y011249D01*
X001002Y011297D01*
X001019Y011344D01*
X001040Y011389D01*
X001065Y011433D01*
X001093Y011474D01*
X001125Y011513D01*
X001159Y011550D01*
X001196Y011584D01*
X001236Y011614D01*
X001278Y011641D01*
X001322Y011665D01*
X001368Y011686D01*
X001415Y011702D01*
X001463Y011715D01*
X001513Y011724D01*
X001562Y011729D01*
X001613Y011730D01*
X001663Y011727D01*
X001712Y011720D01*
X001761Y011709D01*
X001809Y011694D01*
X001855Y011676D01*
X001900Y011654D01*
X001943Y011628D01*
X001984Y011599D01*
X002023Y011567D01*
X002059Y011532D01*
X002091Y011494D01*
X002121Y011454D01*
X002148Y011411D01*
X002171Y011367D01*
X002190Y011321D01*
X002206Y011273D01*
X002218Y011224D01*
X002226Y011175D01*
X002230Y011125D01*
X002230Y011075D01*
X002226Y011025D01*
X002218Y010976D01*
X002206Y010927D01*
X002190Y010879D01*
X002171Y010833D01*
X002148Y010789D01*
X002121Y010746D01*
X002091Y010706D01*
X002059Y010668D01*
X002023Y010633D01*
X001984Y010601D01*
X001943Y010572D01*
X001900Y010546D01*
X001855Y010524D01*
X001809Y010506D01*
X001761Y010491D01*
X001712Y010480D01*
X001663Y010473D01*
X001613Y010470D01*
X001562Y010471D01*
X001513Y010476D01*
X001463Y010485D01*
X001415Y010498D01*
X001368Y010514D01*
X001322Y010535D01*
X001278Y010559D01*
X001236Y010586D01*
X001196Y010616D01*
X001159Y010650D01*
X001125Y010687D01*
X001093Y010726D01*
X001065Y010767D01*
X001040Y010811D01*
X001019Y010856D01*
X001002Y010903D01*
X000988Y010951D01*
X000978Y011000D01*
X000972Y011050D01*
X000970Y011100D01*
X000970Y018600D02*
X000972Y018650D01*
X000978Y018700D01*
X000988Y018749D01*
X001002Y018797D01*
X001019Y018844D01*
X001040Y018889D01*
X001065Y018933D01*
X001093Y018974D01*
X001125Y019013D01*
X001159Y019050D01*
X001196Y019084D01*
X001236Y019114D01*
X001278Y019141D01*
X001322Y019165D01*
X001368Y019186D01*
X001415Y019202D01*
X001463Y019215D01*
X001513Y019224D01*
X001562Y019229D01*
X001613Y019230D01*
X001663Y019227D01*
X001712Y019220D01*
X001761Y019209D01*
X001809Y019194D01*
X001855Y019176D01*
X001900Y019154D01*
X001943Y019128D01*
X001984Y019099D01*
X002023Y019067D01*
X002059Y019032D01*
X002091Y018994D01*
X002121Y018954D01*
X002148Y018911D01*
X002171Y018867D01*
X002190Y018821D01*
X002206Y018773D01*
X002218Y018724D01*
X002226Y018675D01*
X002230Y018625D01*
X002230Y018575D01*
X002226Y018525D01*
X002218Y018476D01*
X002206Y018427D01*
X002190Y018379D01*
X002171Y018333D01*
X002148Y018289D01*
X002121Y018246D01*
X002091Y018206D01*
X002059Y018168D01*
X002023Y018133D01*
X001984Y018101D01*
X001943Y018072D01*
X001900Y018046D01*
X001855Y018024D01*
X001809Y018006D01*
X001761Y017991D01*
X001712Y017980D01*
X001663Y017973D01*
X001613Y017970D01*
X001562Y017971D01*
X001513Y017976D01*
X001463Y017985D01*
X001415Y017998D01*
X001368Y018014D01*
X001322Y018035D01*
X001278Y018059D01*
X001236Y018086D01*
X001196Y018116D01*
X001159Y018150D01*
X001125Y018187D01*
X001093Y018226D01*
X001065Y018267D01*
X001040Y018311D01*
X001019Y018356D01*
X001002Y018403D01*
X000988Y018451D01*
X000978Y018500D01*
X000972Y018550D01*
X000970Y018600D01*
D11*
X000996Y009943D02*
X000600Y009943D01*
X001389Y009943D02*
X001785Y009943D01*
X002179Y009943D02*
X002574Y009943D01*
X002968Y009943D02*
X003364Y009943D01*
X003757Y009943D02*
X004153Y009943D01*
X004547Y009943D02*
X004942Y009943D01*
X005336Y009943D02*
X005732Y009943D01*
X006125Y009943D02*
X006521Y009943D01*
X006915Y009943D02*
X007310Y009943D01*
X007704Y009943D02*
X008100Y009943D01*
X008493Y009943D02*
X008889Y009943D01*
X009283Y009943D02*
X009678Y009943D01*
X010072Y009943D02*
X010467Y009943D01*
X010861Y009943D02*
X011257Y009943D01*
X011650Y009943D02*
X012046Y009943D01*
X012440Y009943D02*
X012835Y009943D01*
X013229Y009943D02*
X013625Y009943D01*
X014018Y009943D02*
X014414Y009943D01*
X014808Y009943D02*
X015203Y009943D01*
X015597Y009943D02*
X015993Y009943D01*
X016386Y009943D02*
X016782Y009943D01*
X017176Y009943D02*
X017571Y009943D01*
X017965Y009943D02*
X018361Y009943D01*
X018754Y009943D02*
X019150Y009943D01*
D12*
X017085Y011663D02*
X017037Y011615D01*
X017085Y011663D02*
X017085Y011760D01*
X017037Y011808D01*
X016988Y011808D01*
X016940Y011760D01*
X016940Y011712D01*
X016940Y011760D02*
X016892Y011808D01*
X016843Y011808D01*
X016795Y011760D01*
X016795Y011663D01*
X016843Y011615D01*
X016795Y011910D02*
X016988Y011910D01*
X017085Y012006D01*
X016988Y012103D01*
X016795Y012103D01*
X016843Y012204D02*
X016795Y012253D01*
X016795Y012349D01*
X016843Y012398D01*
X016892Y012398D01*
X016940Y012349D01*
X016988Y012398D01*
X017037Y012398D01*
X017085Y012349D01*
X017085Y012253D01*
X017037Y012204D01*
X016940Y012301D02*
X016940Y012349D01*
X015808Y011857D02*
X015760Y011905D01*
X015663Y011905D01*
X015615Y011857D01*
X015808Y011857D02*
X015808Y011808D01*
X015615Y011615D01*
X015808Y011615D01*
X014808Y011760D02*
X014615Y011760D01*
X014760Y011905D01*
X014760Y011615D01*
X013808Y011663D02*
X013808Y011712D01*
X013760Y011760D01*
X013615Y011760D01*
X013615Y011663D01*
X013663Y011615D01*
X013760Y011615D01*
X013808Y011663D01*
X013712Y011857D02*
X013615Y011760D01*
X013712Y011857D02*
X013808Y011905D01*
X012808Y011857D02*
X012808Y011808D01*
X012760Y011760D01*
X012663Y011760D01*
X012615Y011808D01*
X012615Y011857D01*
X012663Y011905D01*
X012760Y011905D01*
X012808Y011857D01*
X012760Y011760D02*
X012808Y011712D01*
X012808Y011663D01*
X012760Y011615D01*
X012663Y011615D01*
X012615Y011663D01*
X012615Y011712D01*
X012663Y011760D01*
X011710Y011862D02*
X011525Y011862D01*
X011463Y011800D01*
X011463Y011677D01*
X011525Y011615D01*
X011710Y011615D01*
X011710Y011985D01*
X011342Y011862D02*
X011280Y011862D01*
X011157Y011738D01*
X011035Y011738D02*
X010850Y011738D01*
X010788Y011677D01*
X010850Y011615D01*
X011035Y011615D01*
X011035Y011800D01*
X010973Y011862D01*
X010850Y011862D01*
X010667Y011800D02*
X010667Y011677D01*
X010605Y011615D01*
X010482Y011615D01*
X010420Y011677D01*
X010420Y011800D01*
X010482Y011862D01*
X010605Y011862D01*
X010667Y011800D01*
X010298Y011738D02*
X010298Y011677D01*
X010237Y011615D01*
X010052Y011615D01*
X010052Y011985D01*
X010237Y011985D01*
X010298Y011924D01*
X010298Y011862D01*
X010237Y011800D01*
X010052Y011800D01*
X010237Y011800D02*
X010298Y011738D01*
X009562Y011738D02*
X009315Y011738D01*
X009315Y011677D02*
X009315Y011800D01*
X009377Y011862D01*
X009500Y011862D01*
X009562Y011800D01*
X009562Y011738D01*
X009500Y011615D02*
X009377Y011615D01*
X009315Y011677D01*
X009194Y011615D02*
X009008Y011615D01*
X008947Y011677D01*
X008947Y011800D01*
X009008Y011862D01*
X009194Y011862D01*
X008825Y011800D02*
X008825Y011615D01*
X008640Y011615D01*
X008578Y011677D01*
X008640Y011738D01*
X008825Y011738D01*
X008825Y011800D02*
X008763Y011862D01*
X008640Y011862D01*
X008456Y011800D02*
X008333Y011800D01*
X008211Y011862D02*
X008149Y011862D01*
X008026Y011738D01*
X007904Y011738D02*
X007658Y011738D01*
X007658Y011677D02*
X007658Y011800D01*
X007719Y011862D01*
X007843Y011862D01*
X007904Y011800D01*
X007904Y011738D01*
X007843Y011615D02*
X007719Y011615D01*
X007658Y011677D01*
X007535Y011615D02*
X007474Y011677D01*
X007474Y011924D01*
X007535Y011862D02*
X007412Y011862D01*
X007291Y011800D02*
X007291Y011615D01*
X007291Y011800D02*
X007229Y011862D01*
X007044Y011862D01*
X007044Y011615D01*
X006922Y011615D02*
X006798Y011615D01*
X006860Y011615D02*
X006860Y011985D01*
X006798Y011985D02*
X006922Y011985D01*
X006308Y011800D02*
X006062Y011800D01*
X006185Y011677D02*
X006185Y011924D01*
X005817Y011985D02*
X005817Y011615D01*
X005940Y011615D02*
X005693Y011615D01*
X005572Y011677D02*
X005510Y011615D01*
X005387Y011615D01*
X005325Y011677D01*
X005572Y011924D01*
X005572Y011677D01*
X005693Y011862D02*
X005817Y011985D01*
X005572Y011924D02*
X005510Y011985D01*
X005387Y011985D01*
X005325Y011924D01*
X005325Y011677D01*
X005203Y011615D02*
X004957Y011615D01*
X004957Y011985D01*
X004773Y011985D02*
X004588Y011800D01*
X004835Y011800D01*
X004773Y011615D02*
X004773Y011985D01*
X004467Y011924D02*
X004405Y011985D01*
X004282Y011985D01*
X004220Y011924D01*
X004099Y011985D02*
X003852Y011985D01*
X003852Y011615D01*
X003730Y011615D02*
X003607Y011738D01*
X003668Y011738D02*
X003483Y011738D01*
X003483Y011615D02*
X003483Y011985D01*
X003668Y011985D01*
X003730Y011924D01*
X003730Y011800D01*
X003668Y011738D01*
X003852Y011800D02*
X003975Y011800D01*
X004220Y011615D02*
X004467Y011862D01*
X004467Y011924D01*
X004467Y011615D02*
X004220Y011615D01*
X004097Y011405D02*
X004097Y011115D01*
X003997Y011115D02*
X003949Y011163D01*
X003949Y011357D01*
X003901Y011308D02*
X003997Y011308D01*
X004097Y011260D02*
X004146Y011308D01*
X004242Y011308D01*
X004291Y011260D01*
X004291Y011115D01*
X004392Y011163D02*
X004392Y011260D01*
X004440Y011308D01*
X004537Y011308D01*
X004585Y011260D01*
X004585Y011212D01*
X004392Y011212D01*
X004392Y011163D02*
X004440Y011115D01*
X004537Y011115D01*
X004686Y011163D02*
X004735Y011115D01*
X004783Y011163D01*
X004832Y011115D01*
X004880Y011163D01*
X004880Y011308D01*
X004686Y011308D02*
X004686Y011163D01*
X005276Y011115D02*
X005276Y011405D01*
X005276Y011260D02*
X005469Y011260D01*
X005570Y011260D02*
X005619Y011308D01*
X005716Y011308D01*
X005764Y011260D01*
X005764Y011212D01*
X005570Y011212D01*
X005570Y011260D02*
X005570Y011163D01*
X005619Y011115D01*
X005716Y011115D01*
X005865Y011115D02*
X005865Y011308D01*
X006010Y011308D01*
X006059Y011260D01*
X006059Y011115D01*
X006160Y011163D02*
X006208Y011115D01*
X006353Y011115D01*
X006353Y011067D02*
X006353Y011308D01*
X006208Y011308D01*
X006160Y011260D01*
X006160Y011163D01*
X006256Y011018D02*
X006305Y011018D01*
X006353Y011067D01*
X006454Y011163D02*
X006454Y011260D01*
X006503Y011308D01*
X006600Y011308D01*
X006648Y011260D01*
X006648Y011212D01*
X006454Y011212D01*
X006454Y011163D02*
X006503Y011115D01*
X006600Y011115D01*
X006749Y011308D02*
X006846Y011115D01*
X006943Y011308D01*
X007044Y011260D02*
X007092Y011308D01*
X007189Y011308D01*
X007237Y011260D01*
X007237Y011212D01*
X007044Y011212D01*
X007044Y011260D02*
X007044Y011163D01*
X007092Y011115D01*
X007189Y011115D01*
X007338Y011115D02*
X007435Y011115D01*
X007387Y011115D02*
X007387Y011405D01*
X007338Y011405D01*
X007535Y011260D02*
X007583Y011308D01*
X007728Y011308D01*
X007728Y011405D02*
X007728Y011115D01*
X007583Y011115D01*
X007535Y011163D01*
X007535Y011260D01*
X008124Y011357D02*
X008172Y011405D01*
X008269Y011405D01*
X008318Y011357D01*
X008318Y011308D01*
X008124Y011115D01*
X008318Y011115D01*
X008419Y011163D02*
X008612Y011357D01*
X008612Y011163D01*
X008564Y011115D01*
X008467Y011115D01*
X008419Y011163D01*
X008419Y011357D01*
X008467Y011405D01*
X008564Y011405D01*
X008612Y011357D01*
X008713Y011308D02*
X008810Y011405D01*
X008810Y011115D01*
X008713Y011115D02*
X008907Y011115D01*
X009008Y011163D02*
X009056Y011115D01*
X009153Y011115D01*
X009202Y011163D01*
X009202Y011260D01*
X009153Y011308D01*
X009105Y011308D01*
X009008Y011260D01*
X009008Y011405D01*
X009202Y011405D01*
X008395Y011615D02*
X008395Y011924D01*
X008456Y011985D01*
X008026Y011862D02*
X008026Y011615D01*
X005469Y011405D02*
X005469Y011115D01*
X003801Y011115D02*
X003753Y011163D01*
X003753Y011357D01*
X003801Y011308D02*
X003704Y011308D01*
X003603Y011260D02*
X003603Y011115D01*
X003458Y011115D01*
X003410Y011163D01*
X003458Y011212D01*
X003603Y011212D01*
X003603Y011260D02*
X003555Y011308D01*
X003458Y011308D01*
X003308Y011405D02*
X003308Y011115D01*
X003115Y011115D02*
X003115Y011405D01*
X003212Y011308D01*
X003308Y011405D01*
X003362Y011615D02*
X003362Y011800D01*
X003300Y011862D01*
X003115Y011862D01*
X003115Y011615D01*
X003913Y012615D02*
X003865Y012663D01*
X003865Y012712D01*
X003913Y012760D01*
X004010Y012760D01*
X004058Y012712D01*
X004058Y012663D01*
X004010Y012615D01*
X003913Y012615D01*
X003913Y012760D02*
X003865Y012808D01*
X003865Y012857D01*
X003913Y012905D01*
X004010Y012905D01*
X004058Y012857D01*
X004058Y012808D01*
X004010Y012760D01*
X004010Y013615D02*
X003913Y013615D01*
X003865Y013663D01*
X003865Y013760D01*
X004010Y013760D01*
X004058Y013712D01*
X004058Y013663D01*
X004010Y013615D01*
X003865Y013760D02*
X003962Y013857D01*
X004058Y013905D01*
X004010Y014615D02*
X004010Y014905D01*
X003865Y014760D01*
X004058Y014760D01*
X004058Y015615D02*
X003865Y015615D01*
X004058Y015808D01*
X004058Y015857D01*
X004010Y015905D01*
X003913Y015905D01*
X003865Y015857D01*
X003913Y016115D02*
X003865Y016163D01*
X003913Y016115D02*
X004010Y016115D01*
X004058Y016163D01*
X004058Y016212D01*
X004010Y016260D01*
X003962Y016260D01*
X004010Y016260D02*
X004058Y016308D01*
X004058Y016357D01*
X004010Y016405D01*
X003913Y016405D01*
X003865Y016357D01*
X004160Y016405D02*
X004160Y016212D01*
X004256Y016115D01*
X004353Y016212D01*
X004353Y016405D01*
X004454Y016357D02*
X004503Y016405D01*
X004599Y016405D01*
X004648Y016357D01*
X004648Y016308D01*
X004599Y016260D01*
X004648Y016212D01*
X004648Y016163D01*
X004599Y016115D01*
X004503Y016115D01*
X004454Y016163D01*
X004551Y016260D02*
X004599Y016260D01*
X004256Y017115D02*
X004160Y017212D01*
X004160Y017405D01*
X004058Y017405D02*
X003865Y017405D01*
X003865Y017260D01*
X003962Y017308D01*
X004010Y017308D01*
X004058Y017260D01*
X004058Y017163D01*
X004010Y017115D01*
X003913Y017115D01*
X003865Y017163D01*
X004256Y017115D02*
X004353Y017212D01*
X004353Y017405D01*
X001585Y016849D02*
X001537Y016898D01*
X001343Y016898D01*
X001295Y016849D01*
X001295Y016704D01*
X001585Y016704D01*
X001585Y016849D01*
X001585Y016603D02*
X001295Y016603D01*
X001295Y016410D02*
X001585Y016603D01*
X001585Y016410D02*
X001295Y016410D01*
X001343Y016308D02*
X001295Y016260D01*
X001295Y016163D01*
X001343Y016115D01*
X001537Y016115D01*
X001585Y016163D01*
X001585Y016260D01*
X001537Y016308D01*
X001440Y016308D01*
X001440Y016212D01*
X003865Y007405D02*
X003865Y007260D01*
X003962Y007308D01*
X004010Y007308D01*
X004058Y007260D01*
X004058Y007163D01*
X004010Y007115D01*
X003913Y007115D01*
X003865Y007163D01*
X003865Y007405D02*
X004058Y007405D01*
X004160Y007405D02*
X004160Y007212D01*
X004256Y007115D01*
X004353Y007212D01*
X004353Y007405D01*
X004353Y006405D02*
X004353Y006212D01*
X004256Y006115D01*
X004160Y006212D01*
X004160Y006405D01*
X004058Y006357D02*
X004010Y006405D01*
X003913Y006405D01*
X003865Y006357D01*
X003962Y006260D02*
X004010Y006260D01*
X004058Y006212D01*
X004058Y006163D01*
X004010Y006115D01*
X003913Y006115D01*
X003865Y006163D01*
X004010Y006260D02*
X004058Y006308D01*
X004058Y006357D01*
X004454Y006357D02*
X004503Y006405D01*
X004599Y006405D01*
X004648Y006357D01*
X004648Y006308D01*
X004599Y006260D01*
X004648Y006212D01*
X004648Y006163D01*
X004599Y006115D01*
X004503Y006115D01*
X004454Y006163D01*
X004551Y006260D02*
X004599Y006260D01*
X004058Y005857D02*
X004010Y005905D01*
X003913Y005905D01*
X003865Y005857D01*
X004058Y005857D02*
X004058Y005808D01*
X003865Y005615D01*
X004058Y005615D01*
X004010Y004905D02*
X003865Y004760D01*
X004058Y004760D01*
X004010Y004615D02*
X004010Y004905D01*
X004058Y003905D02*
X003962Y003857D01*
X003865Y003760D01*
X004010Y003760D01*
X004058Y003712D01*
X004058Y003663D01*
X004010Y003615D01*
X003913Y003615D01*
X003865Y003663D01*
X003865Y003760D01*
X003913Y002905D02*
X004010Y002905D01*
X004058Y002857D01*
X004058Y002808D01*
X004010Y002760D01*
X003913Y002760D01*
X003865Y002808D01*
X003865Y002857D01*
X003913Y002905D01*
X003913Y002760D02*
X003865Y002712D01*
X003865Y002663D01*
X003913Y002615D01*
X004010Y002615D01*
X004058Y002663D01*
X004058Y002712D01*
X004010Y002760D01*
X004099Y001985D02*
X003852Y001985D01*
X003852Y001615D01*
X003730Y001615D02*
X003607Y001738D01*
X003668Y001738D02*
X003483Y001738D01*
X003483Y001615D02*
X003483Y001985D01*
X003668Y001985D01*
X003730Y001924D01*
X003730Y001800D01*
X003668Y001738D01*
X003852Y001800D02*
X003975Y001800D01*
X004220Y001924D02*
X004282Y001985D01*
X004405Y001985D01*
X004467Y001924D01*
X004467Y001862D01*
X004220Y001615D01*
X004467Y001615D01*
X004588Y001800D02*
X004835Y001800D01*
X004773Y001615D02*
X004773Y001985D01*
X004588Y001800D01*
X004957Y001615D02*
X005203Y001615D01*
X005325Y001677D02*
X005572Y001924D01*
X005572Y001677D01*
X005510Y001615D01*
X005387Y001615D01*
X005325Y001677D01*
X005325Y001924D01*
X005387Y001985D01*
X005510Y001985D01*
X005572Y001924D01*
X005693Y001862D02*
X005817Y001985D01*
X005817Y001615D01*
X005940Y001615D02*
X005693Y001615D01*
X005469Y001405D02*
X005469Y001115D01*
X005570Y001163D02*
X005570Y001260D01*
X005619Y001308D01*
X005716Y001308D01*
X005764Y001260D01*
X005764Y001212D01*
X005570Y001212D01*
X005570Y001163D02*
X005619Y001115D01*
X005716Y001115D01*
X005865Y001115D02*
X005865Y001308D01*
X006010Y001308D01*
X006059Y001260D01*
X006059Y001115D01*
X006160Y001163D02*
X006208Y001115D01*
X006353Y001115D01*
X006353Y001067D02*
X006353Y001308D01*
X006208Y001308D01*
X006160Y001260D01*
X006160Y001163D01*
X006256Y001018D02*
X006305Y001018D01*
X006353Y001067D01*
X006454Y001163D02*
X006454Y001260D01*
X006503Y001308D01*
X006600Y001308D01*
X006648Y001260D01*
X006648Y001212D01*
X006454Y001212D01*
X006454Y001163D02*
X006503Y001115D01*
X006600Y001115D01*
X006749Y001308D02*
X006846Y001115D01*
X006943Y001308D01*
X007044Y001260D02*
X007044Y001163D01*
X007092Y001115D01*
X007189Y001115D01*
X007237Y001212D02*
X007044Y001212D01*
X007044Y001260D02*
X007092Y001308D01*
X007189Y001308D01*
X007237Y001260D01*
X007237Y001212D01*
X007338Y001115D02*
X007435Y001115D01*
X007387Y001115D02*
X007387Y001405D01*
X007338Y001405D01*
X007291Y001615D02*
X007291Y001800D01*
X007229Y001862D01*
X007044Y001862D01*
X007044Y001615D01*
X006922Y001615D02*
X006798Y001615D01*
X006860Y001615D02*
X006860Y001985D01*
X006798Y001985D02*
X006922Y001985D01*
X007412Y001862D02*
X007535Y001862D01*
X007474Y001924D02*
X007474Y001677D01*
X007535Y001615D01*
X007658Y001677D02*
X007658Y001800D01*
X007719Y001862D01*
X007843Y001862D01*
X007904Y001800D01*
X007904Y001738D01*
X007658Y001738D01*
X007658Y001677D02*
X007719Y001615D01*
X007843Y001615D01*
X008026Y001615D02*
X008026Y001862D01*
X008149Y001862D02*
X008211Y001862D01*
X008149Y001862D02*
X008026Y001738D01*
X008333Y001800D02*
X008456Y001800D01*
X008395Y001924D02*
X008456Y001985D01*
X008395Y001924D02*
X008395Y001615D01*
X008578Y001677D02*
X008640Y001738D01*
X008825Y001738D01*
X008825Y001800D02*
X008825Y001615D01*
X008640Y001615D01*
X008578Y001677D01*
X008640Y001862D02*
X008763Y001862D01*
X008825Y001800D01*
X008947Y001800D02*
X008947Y001677D01*
X009008Y001615D01*
X009194Y001615D01*
X009315Y001677D02*
X009315Y001800D01*
X009377Y001862D01*
X009500Y001862D01*
X009562Y001800D01*
X009562Y001738D01*
X009315Y001738D01*
X009315Y001677D02*
X009377Y001615D01*
X009500Y001615D01*
X009202Y001405D02*
X009008Y001405D01*
X009008Y001260D01*
X009105Y001308D01*
X009153Y001308D01*
X009202Y001260D01*
X009202Y001163D01*
X009153Y001115D01*
X009056Y001115D01*
X009008Y001163D01*
X008907Y001115D02*
X008713Y001115D01*
X008810Y001115D02*
X008810Y001405D01*
X008713Y001308D01*
X008612Y001357D02*
X008419Y001163D01*
X008467Y001115D01*
X008564Y001115D01*
X008612Y001163D01*
X008612Y001357D01*
X008564Y001405D01*
X008467Y001405D01*
X008419Y001357D01*
X008419Y001163D01*
X008318Y001115D02*
X008124Y001115D01*
X008318Y001308D01*
X008318Y001357D01*
X008269Y001405D01*
X008172Y001405D01*
X008124Y001357D01*
X007728Y001405D02*
X007728Y001115D01*
X007583Y001115D01*
X007535Y001163D01*
X007535Y001260D01*
X007583Y001308D01*
X007728Y001308D01*
X008947Y001800D02*
X009008Y001862D01*
X009194Y001862D01*
X010052Y001800D02*
X010237Y001800D01*
X010298Y001738D01*
X010298Y001677D01*
X010237Y001615D01*
X010052Y001615D01*
X010052Y001985D01*
X010237Y001985D01*
X010298Y001924D01*
X010298Y001862D01*
X010237Y001800D01*
X010420Y001800D02*
X010420Y001677D01*
X010482Y001615D01*
X010605Y001615D01*
X010667Y001677D01*
X010667Y001800D01*
X010605Y001862D01*
X010482Y001862D01*
X010420Y001800D01*
X010788Y001677D02*
X010850Y001738D01*
X011035Y001738D01*
X011035Y001800D02*
X011035Y001615D01*
X010850Y001615D01*
X010788Y001677D01*
X010850Y001862D02*
X010973Y001862D01*
X011035Y001800D01*
X011157Y001738D02*
X011280Y001862D01*
X011342Y001862D01*
X011463Y001800D02*
X011525Y001862D01*
X011710Y001862D01*
X011710Y001985D02*
X011710Y001615D01*
X011525Y001615D01*
X011463Y001677D01*
X011463Y001800D01*
X011157Y001862D02*
X011157Y001615D01*
X012615Y001663D02*
X012615Y001712D01*
X012663Y001760D01*
X012760Y001760D01*
X012808Y001712D01*
X012808Y001663D01*
X012760Y001615D01*
X012663Y001615D01*
X012615Y001663D01*
X012663Y001760D02*
X012615Y001808D01*
X012615Y001857D01*
X012663Y001905D01*
X012760Y001905D01*
X012808Y001857D01*
X012808Y001808D01*
X012760Y001760D01*
X013615Y001760D02*
X013760Y001760D01*
X013808Y001712D01*
X013808Y001663D01*
X013760Y001615D01*
X013663Y001615D01*
X013615Y001663D01*
X013615Y001760D01*
X013712Y001857D01*
X013808Y001905D01*
X014615Y001760D02*
X014808Y001760D01*
X014760Y001615D02*
X014760Y001905D01*
X014615Y001760D01*
X015615Y001857D02*
X015663Y001905D01*
X015760Y001905D01*
X015808Y001857D01*
X015808Y001808D01*
X015615Y001615D01*
X015808Y001615D01*
X016795Y001663D02*
X016795Y001760D01*
X016843Y001808D01*
X016892Y001808D01*
X016940Y001760D01*
X016988Y001808D01*
X017037Y001808D01*
X017085Y001760D01*
X017085Y001663D01*
X017037Y001615D01*
X016940Y001712D02*
X016940Y001760D01*
X016988Y001910D02*
X016795Y001910D01*
X016795Y002103D02*
X016988Y002103D01*
X017085Y002006D01*
X016988Y001910D01*
X016795Y001663D02*
X016843Y001615D01*
X016843Y002204D02*
X016795Y002253D01*
X016795Y002349D01*
X016843Y002398D01*
X016892Y002398D01*
X016940Y002349D01*
X016988Y002398D01*
X017037Y002398D01*
X017085Y002349D01*
X017085Y002253D01*
X017037Y002204D01*
X016940Y002301D02*
X016940Y002349D01*
X016843Y003615D02*
X017037Y003615D01*
X017085Y003663D01*
X017085Y003760D01*
X017037Y003808D01*
X016940Y003808D01*
X016940Y003712D01*
X016843Y003808D02*
X016795Y003760D01*
X016795Y003663D01*
X016843Y003615D01*
X016795Y003910D02*
X017085Y004103D01*
X016795Y004103D01*
X016795Y004204D02*
X016795Y004349D01*
X016843Y004398D01*
X017037Y004398D01*
X017085Y004349D01*
X017085Y004204D01*
X016795Y004204D01*
X016795Y003910D02*
X017085Y003910D01*
X014808Y004163D02*
X014760Y004115D01*
X014663Y004115D01*
X014615Y004163D01*
X014712Y004260D02*
X014760Y004260D01*
X014808Y004212D01*
X014808Y004163D01*
X014760Y004260D02*
X014808Y004308D01*
X014808Y004357D01*
X014760Y004405D01*
X014663Y004405D01*
X014615Y004357D01*
X014663Y006615D02*
X014615Y006663D01*
X014663Y006615D02*
X014760Y006615D01*
X014808Y006663D01*
X014808Y006712D01*
X014760Y006760D01*
X014712Y006760D01*
X014760Y006760D02*
X014808Y006808D01*
X014808Y006857D01*
X014760Y006905D01*
X014663Y006905D01*
X014615Y006857D01*
X014910Y006905D02*
X014910Y006712D01*
X015006Y006615D01*
X015103Y006712D01*
X015103Y006905D01*
X015204Y006857D02*
X015253Y006905D01*
X015349Y006905D01*
X015398Y006857D01*
X015398Y006808D01*
X015349Y006760D01*
X015398Y006712D01*
X015398Y006663D01*
X015349Y006615D01*
X015253Y006615D01*
X015204Y006663D01*
X015301Y006760D02*
X015349Y006760D01*
X016115Y008115D02*
X016115Y008405D01*
X016260Y008405D01*
X016308Y008357D01*
X016308Y008260D01*
X016260Y008212D01*
X016115Y008212D01*
X016410Y008115D02*
X016506Y008212D01*
X016603Y008115D01*
X016603Y008405D01*
X016704Y008405D02*
X016849Y008405D01*
X016898Y008357D01*
X016898Y008260D01*
X016849Y008212D01*
X016704Y008212D01*
X016704Y008115D02*
X016704Y008405D01*
X016801Y008212D02*
X016898Y008115D01*
X016410Y008115D02*
X016410Y008405D01*
X015361Y008697D02*
X015299Y008635D01*
X015176Y008635D01*
X015114Y008697D01*
X014992Y008697D02*
X014992Y008635D01*
X014930Y008635D01*
X014930Y008697D01*
X014992Y008697D01*
X014808Y008697D02*
X014808Y008758D01*
X014747Y008820D01*
X014685Y008820D01*
X014747Y008820D02*
X014808Y008882D01*
X014808Y008944D01*
X014747Y009005D01*
X014623Y009005D01*
X014562Y008944D01*
X014562Y008697D02*
X014623Y008635D01*
X014747Y008635D01*
X014808Y008697D01*
X014440Y008573D02*
X014193Y008573D01*
X014072Y008635D02*
X014072Y009005D01*
X014072Y008820D02*
X013825Y008820D01*
X013703Y008820D02*
X013457Y008820D01*
X013642Y009005D01*
X013642Y008635D01*
X013825Y008635D02*
X013825Y009005D01*
X013335Y008635D02*
X013088Y008635D01*
X012967Y008635D02*
X012720Y008635D01*
X012599Y008635D02*
X012352Y008635D01*
X012599Y008882D01*
X012599Y008944D01*
X012537Y009005D01*
X012413Y009005D01*
X012352Y008944D01*
X012230Y008944D02*
X012168Y009005D01*
X011983Y009005D01*
X011983Y008635D01*
X011862Y008635D02*
X011862Y008882D01*
X011738Y009005D01*
X011615Y008882D01*
X011615Y008635D01*
X011615Y008820D02*
X011862Y008820D01*
X011983Y008758D02*
X012168Y008758D01*
X012230Y008820D01*
X012230Y008944D01*
X012720Y008882D02*
X012843Y009005D01*
X012843Y008635D01*
X013088Y008882D02*
X013212Y009005D01*
X013212Y008635D01*
X011398Y008357D02*
X011398Y008163D01*
X011349Y008115D01*
X011204Y008115D01*
X011204Y008405D01*
X011349Y008405D01*
X011398Y008357D01*
X011103Y008405D02*
X011103Y008115D01*
X010910Y008405D01*
X010910Y008115D01*
X010808Y008163D02*
X010760Y008115D01*
X010663Y008115D01*
X010615Y008163D01*
X010615Y008357D01*
X010663Y008405D01*
X010760Y008405D01*
X010808Y008357D01*
X010808Y008260D02*
X010712Y008260D01*
X010808Y008260D02*
X010808Y008163D01*
X010808Y006405D02*
X010615Y006405D01*
X010615Y006260D01*
X010712Y006308D01*
X010760Y006308D01*
X010808Y006260D01*
X010808Y006163D01*
X010760Y006115D01*
X010663Y006115D01*
X010615Y006163D01*
X010910Y006212D02*
X011006Y006115D01*
X011103Y006212D01*
X011103Y006405D01*
X010910Y006405D02*
X010910Y006212D01*
X015114Y008944D02*
X015176Y009005D01*
X015299Y009005D01*
X015361Y008944D01*
X015361Y008882D01*
X015299Y008820D01*
X015361Y008758D01*
X015361Y008697D01*
X015299Y008820D02*
X015237Y008820D01*
X011157Y011615D02*
X011157Y011862D01*
X011006Y016115D02*
X010910Y016212D01*
X010910Y016405D01*
X010808Y016405D02*
X010615Y016405D01*
X010615Y016260D01*
X010712Y016308D01*
X010760Y016308D01*
X010808Y016260D01*
X010808Y016163D01*
X010760Y016115D01*
X010663Y016115D01*
X010615Y016163D01*
X011006Y016115D02*
X011103Y016212D01*
X011103Y016405D01*
X011103Y018115D02*
X011103Y018405D01*
X011204Y018405D02*
X011204Y018115D01*
X011349Y018115D01*
X011398Y018163D01*
X011398Y018357D01*
X011349Y018405D01*
X011204Y018405D01*
X010910Y018405D02*
X011103Y018115D01*
X010910Y018115D02*
X010910Y018405D01*
X010808Y018357D02*
X010760Y018405D01*
X010663Y018405D01*
X010615Y018357D01*
X010615Y018163D01*
X010663Y018115D01*
X010760Y018115D01*
X010808Y018163D01*
X010808Y018260D01*
X010712Y018260D01*
X011615Y018635D02*
X011615Y018882D01*
X011738Y019005D01*
X011862Y018882D01*
X011862Y018635D01*
X011983Y018635D02*
X011983Y019005D01*
X012168Y019005D01*
X012230Y018944D01*
X012230Y018820D01*
X012168Y018758D01*
X011983Y018758D01*
X011862Y018820D02*
X011615Y018820D01*
X012352Y018944D02*
X012413Y019005D01*
X012537Y019005D01*
X012599Y018944D01*
X012599Y018882D01*
X012352Y018635D01*
X012599Y018635D01*
X012720Y018635D02*
X012967Y018635D01*
X013088Y018635D02*
X013335Y018635D01*
X013212Y018635D02*
X013212Y019005D01*
X013088Y018882D01*
X012843Y019005D02*
X012843Y018635D01*
X012720Y018882D02*
X012843Y019005D01*
X013457Y018820D02*
X013703Y018820D01*
X013825Y018820D02*
X014072Y018820D01*
X014193Y018820D02*
X014440Y018820D01*
X014562Y018697D02*
X014623Y018635D01*
X014747Y018635D01*
X014808Y018697D01*
X014808Y018758D01*
X014747Y018820D01*
X014685Y018820D01*
X014747Y018820D02*
X014808Y018882D01*
X014808Y018944D01*
X014747Y019005D01*
X014623Y019005D01*
X014562Y018944D01*
X014930Y018697D02*
X014930Y018635D01*
X014992Y018635D01*
X014992Y018697D01*
X014930Y018697D01*
X015114Y018697D02*
X015176Y018635D01*
X015299Y018635D01*
X015361Y018697D01*
X015361Y018758D01*
X015299Y018820D01*
X015237Y018820D01*
X015299Y018820D02*
X015361Y018882D01*
X015361Y018944D01*
X015299Y019005D01*
X015176Y019005D01*
X015114Y018944D01*
X016115Y018405D02*
X016115Y018115D01*
X016115Y018212D02*
X016260Y018212D01*
X016308Y018260D01*
X016308Y018357D01*
X016260Y018405D01*
X016115Y018405D01*
X016410Y018405D02*
X016410Y018115D01*
X016506Y018212D01*
X016603Y018115D01*
X016603Y018405D01*
X016704Y018405D02*
X016704Y018115D01*
X016704Y018212D02*
X016849Y018212D01*
X016898Y018260D01*
X016898Y018357D01*
X016849Y018405D01*
X016704Y018405D01*
X016801Y018212D02*
X016898Y018115D01*
X015398Y016857D02*
X015398Y016808D01*
X015349Y016760D01*
X015398Y016712D01*
X015398Y016663D01*
X015349Y016615D01*
X015253Y016615D01*
X015204Y016663D01*
X015103Y016712D02*
X015103Y016905D01*
X015204Y016857D02*
X015253Y016905D01*
X015349Y016905D01*
X015398Y016857D01*
X015349Y016760D02*
X015301Y016760D01*
X015103Y016712D02*
X015006Y016615D01*
X014910Y016712D01*
X014910Y016905D01*
X014808Y016857D02*
X014760Y016905D01*
X014663Y016905D01*
X014615Y016857D01*
X014712Y016760D02*
X014760Y016760D01*
X014808Y016712D01*
X014808Y016663D01*
X014760Y016615D01*
X014663Y016615D01*
X014615Y016663D01*
X014760Y016760D02*
X014808Y016808D01*
X014808Y016857D01*
X014072Y018635D02*
X014072Y019005D01*
X013825Y019005D02*
X013825Y018635D01*
X013642Y018635D02*
X013642Y019005D01*
X013457Y018820D01*
X016843Y014398D02*
X016795Y014349D01*
X016795Y014204D01*
X017085Y014204D01*
X017085Y014349D01*
X017037Y014398D01*
X016843Y014398D01*
X016795Y014103D02*
X017085Y014103D01*
X016795Y013910D01*
X017085Y013910D01*
X017037Y013808D02*
X016940Y013808D01*
X016940Y013712D01*
X017037Y013808D02*
X017085Y013760D01*
X017085Y013663D01*
X017037Y013615D01*
X016843Y013615D01*
X016795Y013663D01*
X016795Y013760D01*
X016843Y013808D01*
X006185Y001924D02*
X006185Y001677D01*
X006062Y001800D02*
X006308Y001800D01*
X005469Y001260D02*
X005276Y001260D01*
X005276Y001115D02*
X005276Y001405D01*
X004957Y001615D02*
X004957Y001985D01*
X004880Y001308D02*
X004880Y001163D01*
X004832Y001115D01*
X004783Y001163D01*
X004735Y001115D01*
X004686Y001163D01*
X004686Y001308D01*
X004585Y001260D02*
X004585Y001212D01*
X004392Y001212D01*
X004392Y001260D02*
X004440Y001308D01*
X004537Y001308D01*
X004585Y001260D01*
X004537Y001115D02*
X004440Y001115D01*
X004392Y001163D01*
X004392Y001260D01*
X004291Y001260D02*
X004291Y001115D01*
X004291Y001260D02*
X004242Y001308D01*
X004146Y001308D01*
X004097Y001260D01*
X003997Y001308D02*
X003901Y001308D01*
X003949Y001357D02*
X003949Y001163D01*
X003997Y001115D01*
X004097Y001115D02*
X004097Y001405D01*
X003801Y001308D02*
X003704Y001308D01*
X003753Y001357D02*
X003753Y001163D01*
X003801Y001115D01*
X003603Y001115D02*
X003603Y001260D01*
X003555Y001308D01*
X003458Y001308D01*
X003458Y001212D02*
X003603Y001212D01*
X003603Y001115D02*
X003458Y001115D01*
X003410Y001163D01*
X003458Y001212D01*
X003308Y001115D02*
X003308Y001405D01*
X003212Y001308D01*
X003115Y001405D01*
X003115Y001115D01*
X003115Y001615D02*
X003115Y001862D01*
X003300Y001862D01*
X003362Y001800D01*
X003362Y001615D01*
X001537Y006115D02*
X001343Y006115D01*
X001295Y006163D01*
X001295Y006260D01*
X001343Y006308D01*
X001440Y006308D02*
X001440Y006212D01*
X001440Y006308D02*
X001537Y006308D01*
X001585Y006260D01*
X001585Y006163D01*
X001537Y006115D01*
X001585Y006410D02*
X001295Y006410D01*
X001585Y006603D01*
X001295Y006603D01*
X001295Y006704D02*
X001295Y006849D01*
X001343Y006898D01*
X001537Y006898D01*
X001585Y006849D01*
X001585Y006704D01*
X001295Y006704D01*
D13*
X001600Y006850D02*
X001600Y007350D01*
X001850Y007600D01*
X003350Y007600D01*
X003600Y007350D01*
X003600Y006850D01*
X003350Y006600D01*
X001850Y006600D01*
X001600Y006850D01*
X001850Y006600D02*
X001600Y006350D01*
X001600Y005850D01*
X001850Y005600D01*
X003350Y005600D01*
X003600Y005850D01*
X003600Y006350D01*
X003350Y006600D01*
X003350Y005600D02*
X003600Y005350D01*
X003600Y004850D01*
X003350Y004600D01*
X001850Y004600D01*
X001600Y004850D01*
X001600Y005350D01*
X001850Y005600D01*
X001850Y004600D02*
X001600Y004350D01*
X001600Y003850D01*
X001850Y003600D01*
X003350Y003600D01*
X003600Y003850D01*
X003600Y004350D01*
X003350Y004600D01*
X003350Y003600D02*
X003600Y003350D01*
X003600Y002850D01*
X003350Y002600D01*
X001850Y002600D01*
X001600Y002850D01*
X001600Y003350D01*
X001850Y003600D01*
X005800Y006700D02*
X006000Y006700D01*
X005900Y006600D02*
X005900Y006800D01*
X005600Y007100D02*
X005602Y007163D01*
X005608Y007225D01*
X005618Y007287D01*
X005631Y007349D01*
X005649Y007409D01*
X005670Y007468D01*
X005695Y007526D01*
X005724Y007582D01*
X005756Y007636D01*
X005791Y007688D01*
X005829Y007737D01*
X005871Y007785D01*
X005915Y007829D01*
X005963Y007871D01*
X006012Y007909D01*
X006064Y007944D01*
X006118Y007976D01*
X006174Y008005D01*
X006232Y008030D01*
X006291Y008051D01*
X006351Y008069D01*
X006413Y008082D01*
X006475Y008092D01*
X006537Y008098D01*
X006600Y008100D01*
X006663Y008098D01*
X006725Y008092D01*
X006787Y008082D01*
X006849Y008069D01*
X006909Y008051D01*
X006968Y008030D01*
X007026Y008005D01*
X007082Y007976D01*
X007136Y007944D01*
X007188Y007909D01*
X007237Y007871D01*
X007285Y007829D01*
X007329Y007785D01*
X007371Y007737D01*
X007409Y007688D01*
X007444Y007636D01*
X007476Y007582D01*
X007505Y007526D01*
X007530Y007468D01*
X007551Y007409D01*
X007569Y007349D01*
X007582Y007287D01*
X007592Y007225D01*
X007598Y007163D01*
X007600Y007100D01*
X007598Y007037D01*
X007592Y006975D01*
X007582Y006913D01*
X007569Y006851D01*
X007551Y006791D01*
X007530Y006732D01*
X007505Y006674D01*
X007476Y006618D01*
X007444Y006564D01*
X007409Y006512D01*
X007371Y006463D01*
X007329Y006415D01*
X007285Y006371D01*
X007237Y006329D01*
X007188Y006291D01*
X007136Y006256D01*
X007082Y006224D01*
X007026Y006195D01*
X006968Y006170D01*
X006909Y006149D01*
X006849Y006131D01*
X006787Y006118D01*
X006725Y006108D01*
X006663Y006102D01*
X006600Y006100D01*
X006537Y006102D01*
X006475Y006108D01*
X006413Y006118D01*
X006351Y006131D01*
X006291Y006149D01*
X006232Y006170D01*
X006174Y006195D01*
X006118Y006224D01*
X006064Y006256D01*
X006012Y006291D01*
X005963Y006329D01*
X005915Y006371D01*
X005871Y006415D01*
X005829Y006463D01*
X005791Y006512D01*
X005756Y006564D01*
X005724Y006618D01*
X005695Y006674D01*
X005670Y006732D01*
X005649Y006791D01*
X005631Y006851D01*
X005618Y006913D01*
X005608Y006975D01*
X005602Y007037D01*
X005600Y007100D01*
X006600Y004600D02*
X006602Y004663D01*
X006608Y004725D01*
X006618Y004787D01*
X006631Y004849D01*
X006649Y004909D01*
X006670Y004968D01*
X006695Y005026D01*
X006724Y005082D01*
X006756Y005136D01*
X006791Y005188D01*
X006829Y005237D01*
X006871Y005285D01*
X006915Y005329D01*
X006963Y005371D01*
X007012Y005409D01*
X007064Y005444D01*
X007118Y005476D01*
X007174Y005505D01*
X007232Y005530D01*
X007291Y005551D01*
X007351Y005569D01*
X007413Y005582D01*
X007475Y005592D01*
X007537Y005598D01*
X007600Y005600D01*
X007663Y005598D01*
X007725Y005592D01*
X007787Y005582D01*
X007849Y005569D01*
X007909Y005551D01*
X007968Y005530D01*
X008026Y005505D01*
X008082Y005476D01*
X008136Y005444D01*
X008188Y005409D01*
X008237Y005371D01*
X008285Y005329D01*
X008329Y005285D01*
X008371Y005237D01*
X008409Y005188D01*
X008444Y005136D01*
X008476Y005082D01*
X008505Y005026D01*
X008530Y004968D01*
X008551Y004909D01*
X008569Y004849D01*
X008582Y004787D01*
X008592Y004725D01*
X008598Y004663D01*
X008600Y004600D01*
X008598Y004537D01*
X008592Y004475D01*
X008582Y004413D01*
X008569Y004351D01*
X008551Y004291D01*
X008530Y004232D01*
X008505Y004174D01*
X008476Y004118D01*
X008444Y004064D01*
X008409Y004012D01*
X008371Y003963D01*
X008329Y003915D01*
X008285Y003871D01*
X008237Y003829D01*
X008188Y003791D01*
X008136Y003756D01*
X008082Y003724D01*
X008026Y003695D01*
X007968Y003670D01*
X007909Y003649D01*
X007849Y003631D01*
X007787Y003618D01*
X007725Y003608D01*
X007663Y003602D01*
X007600Y003600D01*
X007537Y003602D01*
X007475Y003608D01*
X007413Y003618D01*
X007351Y003631D01*
X007291Y003649D01*
X007232Y003670D01*
X007174Y003695D01*
X007118Y003724D01*
X007064Y003756D01*
X007012Y003791D01*
X006963Y003829D01*
X006915Y003871D01*
X006871Y003915D01*
X006829Y003963D01*
X006791Y004012D01*
X006756Y004064D01*
X006724Y004118D01*
X006695Y004174D01*
X006670Y004232D01*
X006649Y004291D01*
X006631Y004351D01*
X006618Y004413D01*
X006608Y004475D01*
X006602Y004537D01*
X006600Y004600D01*
X006900Y004300D02*
X006900Y004100D01*
X007000Y004200D02*
X006800Y004200D01*
X012600Y003850D02*
X012600Y002350D01*
X012850Y002100D01*
X013350Y002100D01*
X013600Y002350D01*
X013600Y003850D01*
X013850Y004100D01*
X014350Y004100D01*
X014600Y003850D01*
X014600Y002350D01*
X014850Y002100D01*
X015350Y002100D01*
X015600Y002350D01*
X015850Y002100D01*
X016350Y002100D01*
X016600Y002350D01*
X016600Y003850D01*
X016350Y004100D01*
X015850Y004100D01*
X015600Y003850D01*
X015600Y002350D01*
X014600Y002350D02*
X014350Y002100D01*
X013850Y002100D01*
X013600Y002350D01*
X013600Y003850D02*
X013350Y004100D01*
X012850Y004100D01*
X012600Y003850D01*
X014600Y003850D02*
X014850Y004100D01*
X015350Y004100D01*
X015600Y003850D01*
X015350Y012100D02*
X014850Y012100D01*
X014600Y012350D01*
X014600Y013850D01*
X014850Y014100D01*
X015350Y014100D01*
X015600Y013850D01*
X015850Y014100D01*
X016350Y014100D01*
X016600Y013850D01*
X016600Y012350D01*
X016350Y012100D01*
X015850Y012100D01*
X015600Y012350D01*
X015600Y013850D01*
X014600Y013850D02*
X014350Y014100D01*
X013850Y014100D01*
X013600Y013850D01*
X013600Y012350D01*
X013850Y012100D01*
X014350Y012100D01*
X014600Y012350D01*
X015350Y012100D02*
X015600Y012350D01*
X013600Y012350D02*
X013350Y012100D01*
X012850Y012100D01*
X012600Y012350D01*
X012600Y013850D01*
X012850Y014100D01*
X013350Y014100D01*
X013600Y013850D01*
X006600Y014600D02*
X006602Y014663D01*
X006608Y014725D01*
X006618Y014787D01*
X006631Y014849D01*
X006649Y014909D01*
X006670Y014968D01*
X006695Y015026D01*
X006724Y015082D01*
X006756Y015136D01*
X006791Y015188D01*
X006829Y015237D01*
X006871Y015285D01*
X006915Y015329D01*
X006963Y015371D01*
X007012Y015409D01*
X007064Y015444D01*
X007118Y015476D01*
X007174Y015505D01*
X007232Y015530D01*
X007291Y015551D01*
X007351Y015569D01*
X007413Y015582D01*
X007475Y015592D01*
X007537Y015598D01*
X007600Y015600D01*
X007663Y015598D01*
X007725Y015592D01*
X007787Y015582D01*
X007849Y015569D01*
X007909Y015551D01*
X007968Y015530D01*
X008026Y015505D01*
X008082Y015476D01*
X008136Y015444D01*
X008188Y015409D01*
X008237Y015371D01*
X008285Y015329D01*
X008329Y015285D01*
X008371Y015237D01*
X008409Y015188D01*
X008444Y015136D01*
X008476Y015082D01*
X008505Y015026D01*
X008530Y014968D01*
X008551Y014909D01*
X008569Y014849D01*
X008582Y014787D01*
X008592Y014725D01*
X008598Y014663D01*
X008600Y014600D01*
X008598Y014537D01*
X008592Y014475D01*
X008582Y014413D01*
X008569Y014351D01*
X008551Y014291D01*
X008530Y014232D01*
X008505Y014174D01*
X008476Y014118D01*
X008444Y014064D01*
X008409Y014012D01*
X008371Y013963D01*
X008329Y013915D01*
X008285Y013871D01*
X008237Y013829D01*
X008188Y013791D01*
X008136Y013756D01*
X008082Y013724D01*
X008026Y013695D01*
X007968Y013670D01*
X007909Y013649D01*
X007849Y013631D01*
X007787Y013618D01*
X007725Y013608D01*
X007663Y013602D01*
X007600Y013600D01*
X007537Y013602D01*
X007475Y013608D01*
X007413Y013618D01*
X007351Y013631D01*
X007291Y013649D01*
X007232Y013670D01*
X007174Y013695D01*
X007118Y013724D01*
X007064Y013756D01*
X007012Y013791D01*
X006963Y013829D01*
X006915Y013871D01*
X006871Y013915D01*
X006829Y013963D01*
X006791Y014012D01*
X006756Y014064D01*
X006724Y014118D01*
X006695Y014174D01*
X006670Y014232D01*
X006649Y014291D01*
X006631Y014351D01*
X006618Y014413D01*
X006608Y014475D01*
X006602Y014537D01*
X006600Y014600D01*
X006900Y014300D02*
X006900Y014100D01*
X007000Y014200D02*
X006800Y014200D01*
X005900Y016600D02*
X005900Y016800D01*
X006000Y016700D02*
X005800Y016700D01*
X005600Y017100D02*
X005602Y017163D01*
X005608Y017225D01*
X005618Y017287D01*
X005631Y017349D01*
X005649Y017409D01*
X005670Y017468D01*
X005695Y017526D01*
X005724Y017582D01*
X005756Y017636D01*
X005791Y017688D01*
X005829Y017737D01*
X005871Y017785D01*
X005915Y017829D01*
X005963Y017871D01*
X006012Y017909D01*
X006064Y017944D01*
X006118Y017976D01*
X006174Y018005D01*
X006232Y018030D01*
X006291Y018051D01*
X006351Y018069D01*
X006413Y018082D01*
X006475Y018092D01*
X006537Y018098D01*
X006600Y018100D01*
X006663Y018098D01*
X006725Y018092D01*
X006787Y018082D01*
X006849Y018069D01*
X006909Y018051D01*
X006968Y018030D01*
X007026Y018005D01*
X007082Y017976D01*
X007136Y017944D01*
X007188Y017909D01*
X007237Y017871D01*
X007285Y017829D01*
X007329Y017785D01*
X007371Y017737D01*
X007409Y017688D01*
X007444Y017636D01*
X007476Y017582D01*
X007505Y017526D01*
X007530Y017468D01*
X007551Y017409D01*
X007569Y017349D01*
X007582Y017287D01*
X007592Y017225D01*
X007598Y017163D01*
X007600Y017100D01*
X007598Y017037D01*
X007592Y016975D01*
X007582Y016913D01*
X007569Y016851D01*
X007551Y016791D01*
X007530Y016732D01*
X007505Y016674D01*
X007476Y016618D01*
X007444Y016564D01*
X007409Y016512D01*
X007371Y016463D01*
X007329Y016415D01*
X007285Y016371D01*
X007237Y016329D01*
X007188Y016291D01*
X007136Y016256D01*
X007082Y016224D01*
X007026Y016195D01*
X006968Y016170D01*
X006909Y016149D01*
X006849Y016131D01*
X006787Y016118D01*
X006725Y016108D01*
X006663Y016102D01*
X006600Y016100D01*
X006537Y016102D01*
X006475Y016108D01*
X006413Y016118D01*
X006351Y016131D01*
X006291Y016149D01*
X006232Y016170D01*
X006174Y016195D01*
X006118Y016224D01*
X006064Y016256D01*
X006012Y016291D01*
X005963Y016329D01*
X005915Y016371D01*
X005871Y016415D01*
X005829Y016463D01*
X005791Y016512D01*
X005756Y016564D01*
X005724Y016618D01*
X005695Y016674D01*
X005670Y016732D01*
X005649Y016791D01*
X005631Y016851D01*
X005618Y016913D01*
X005608Y016975D01*
X005602Y017037D01*
X005600Y017100D01*
X003600Y016850D02*
X003600Y017350D01*
X003350Y017600D01*
X001850Y017600D01*
X001600Y017350D01*
X001600Y016850D01*
X001850Y016600D01*
X003350Y016600D01*
X003600Y016850D01*
X003350Y016600D02*
X003600Y016350D01*
X003600Y015850D01*
X003350Y015600D01*
X001850Y015600D01*
X001600Y015850D01*
X001600Y016350D01*
X001850Y016600D01*
X001850Y015600D02*
X001600Y015350D01*
X001600Y014850D01*
X001850Y014600D01*
X003350Y014600D01*
X003600Y014850D01*
X003600Y015350D01*
X003350Y015600D01*
X003350Y014600D02*
X003600Y014350D01*
X003600Y013850D01*
X003350Y013600D01*
X001850Y013600D01*
X001600Y013850D01*
X001600Y014350D01*
X001850Y014600D01*
X001850Y013600D02*
X001600Y013350D01*
X001600Y012850D01*
X001850Y012600D01*
X003350Y012600D01*
X003600Y012850D01*
X003600Y013350D01*
X003350Y013600D01*
D14*
X012400Y015810D02*
X012400Y018390D01*
X013800Y018390D01*
X013800Y015810D01*
X012400Y015810D01*
X012400Y008390D02*
X013800Y008390D01*
X013800Y005810D01*
X012400Y005810D01*
X012400Y008390D01*
D15*
X016883Y007797D02*
X016906Y007820D01*
X016932Y007840D01*
X016960Y007857D01*
X016989Y007871D01*
X017020Y007882D01*
X017051Y007889D01*
X017084Y007893D01*
X017116Y007893D01*
X017149Y007889D01*
X017180Y007882D01*
X017211Y007871D01*
X017240Y007857D01*
X017268Y007840D01*
X017294Y007820D01*
X017317Y007797D01*
X017317Y007403D02*
X017294Y007380D01*
X017268Y007360D01*
X017240Y007343D01*
X017211Y007329D01*
X017180Y007318D01*
X017149Y007311D01*
X017116Y007307D01*
X017084Y007307D01*
X017051Y007311D01*
X017020Y007318D01*
X016989Y007329D01*
X016960Y007343D01*
X016932Y007360D01*
X016906Y007380D01*
X016883Y007403D01*
X016883Y017403D02*
X016906Y017380D01*
X016932Y017360D01*
X016960Y017343D01*
X016989Y017329D01*
X017020Y017318D01*
X017051Y017311D01*
X017084Y017307D01*
X017116Y017307D01*
X017149Y017311D01*
X017180Y017318D01*
X017211Y017329D01*
X017240Y017343D01*
X017268Y017360D01*
X017294Y017380D01*
X017317Y017403D01*
X017317Y017797D02*
X017294Y017820D01*
X017268Y017840D01*
X017240Y017857D01*
X017211Y017871D01*
X017180Y017882D01*
X017149Y017889D01*
X017116Y017893D01*
X017084Y017893D01*
X017051Y017889D01*
X017020Y017882D01*
X016989Y017871D01*
X016960Y017857D01*
X016932Y017840D01*
X016906Y017820D01*
X016883Y017797D01*
D16*
X017100Y017600D03*
X017100Y007600D03*
D17*
X017307Y007374D03*
X017307Y017374D03*
M02*
