<?xml version="1.0" encoding="utf-8"?>
<!-- Generator: Adobe Illustrator 14.0.0, SVG Export Plug-In . SVG Version: 6.00 Build 43363)  -->
<!DOCTYPE svg PUBLIC "-//W3C//DTD SVG 1.1//EN" "http://www.w3.org/Graphics/SVG/1.1/DTD/svg11.dtd">
<svg version="1.1" id="Layer_1" xmlns="http://www.w3.org/2000/svg" xmlns:xlink="http://www.w3.org/1999/xlink" x="0px" y="0px"
	 width="800px" height="800px" viewBox="0 0 800 800" enable-background="new 0 0 800 800" xml:space="preserve">
<g id="innerBG" display="none">
	<circle display="inline" fill="#68C1DD" cx="400" cy="400" r="390"/>
	<circle display="inline" fill="#3C3C3C" cx="400" cy="400" r="375"/>
</g>
<g id="circle">
	<path fill="#EBEBEB" stroke="#666666" d="M400,10C184.61,10,10,184.609,10,400c0,215.391,174.61,390,390,390
		c215.393,0,390-174.609,390-390C790,184.609,615.393,10,400,10z M400,775C192.894,775,25,607.104,25,400
		C25,192.892,192.894,25,400,25c207.105,0,375,167.892,375,375C775,607.104,607.105,775,400,775z"/>
</g>
<g id="Layer_5">
	<g id="innerBG_1_" display="none">
		<circle display="inline" fill="#68C1DD" cx="400" cy="400" r="390"/>
		<circle display="inline" fill="#3C3C3C" cx="400" cy="400" r="375"/>
	</g>
	<g id="Layer_6">
		<g>
			<g>
				<path fill="#F90000" stroke="#EBEBEB" stroke-width="30" d="M268.233,167.5c-81.368,0-145.733,65.744-145.733,146.099
					c0,164.362,165.164,206.974,276.893,368.901C506.265,521.791,677.5,471.874,677.5,313.599
					c0-80.355-65.58-146.099-145.733-146.099c-58.293,0-109.299,34.09-132.374,84.007C376.319,201.59,326.526,167.5,268.233,167.5z"
					/>
			</g>
		</g>
	</g>
</g>
</svg>
