<?xml version="1.0" encoding="utf-8"?>
<!-- Generator: Adobe Illustrator 14.0.0, SVG Export Plug-In . SVG Version: 6.00 Build 43363)  -->
<!DOCTYPE svg PUBLIC "-//W3C//DTD SVG 1.1//EN" "http://www.w3.org/Graphics/SVG/1.1/DTD/svg11.dtd">
<svg version="1.1" id="Layer_1" xmlns="http://www.w3.org/2000/svg" xmlns:xlink="http://www.w3.org/1999/xlink" x="0px" y="0px"
	 width="800px" height="800px" viewBox="0 0 800 800" enable-background="new 0 0 800 800" xml:space="preserve">
<g id="innerBG" display="none">
	<circle display="inline" fill="#68C1DD" cx="400" cy="400" r="390"/>
	<circle display="inline" fill="#3C3C3C" cx="400" cy="400" r="375"/>
</g>
<g id="circle" display="none">
	<path display="inline" fill="#666666" d="M400,10C184.61,10,10,184.609,10,400c0,215.391,174.61,390,390,390
		c215.393,0,390-174.609,390-390C790,184.609,615.393,10,400,10z M400,775C192.894,775,25,607.104,25,400
		C25,192.892,192.894,25,400,25c207.105,0,375,167.892,375,375C775,607.104,607.105,775,400,775z"/>
</g>
<g id="Layer_4">
</g>
<g>
	<path fill="#F90000" d="M533.388,455.584V290.805h-144v164.779c-46.481,25.482-78,74.867-78,131.616
		c0,82.842,67.157,150,150.001,150c82.842,0,149.999-67.158,149.999-150C611.388,530.451,579.87,481.066,533.388,455.584z"/>
	<rect x="443.609" y="403" fill="#EBEBEB" width="79.999" height="30"/>
	<rect x="443.609" y="338.312" fill="#EBEBEB" width="79.999" height="30"/>
	<rect x="443.609" y="273.623" fill="#EBEBEB" width="79.999" height="30"/>
	<rect x="443.609" y="208.935" fill="#EBEBEB" width="79.999" height="30.001"/>
	<rect x="443.609" y="144.247" fill="#EBEBEB" width="79.999" height="30"/>
	<path fill="none" stroke="#EBEBEB" stroke-width="20" d="M533.388,455.584V141.341c0-0.519-0.078-1.025-0.192-1.524
		c0.112-1.66,0.192-3.328,0.192-5.017c0-39.764-32.235-72-72.001-72c-39.764,0-72,32.236-72,72c0,1.689,0.08,3.359,0.193,5.019
		c-0.113,0.498-0.192,1.004-0.192,1.522v314.243c-46.481,25.482-78,74.867-78,131.616c0,82.842,67.157,150,150.001,150
		c82.842,0,149.999-67.158,149.999-150C611.388,530.451,579.87,481.066,533.388,455.584z"/>
</g>
<path fill="#68C1DD" d="M200.976,329.199c-12.796,31.097-21.41,63.077-21.41,98.032c0,66.636,54.019,120.652,120.653,120.652
	c66.637,0,120.655-54.018,120.655-120.652c0-35.029-8.772-66.976-21.746-98.032H200.976L200.976,329.199z"/>
<path fill="none" stroke="#EBEBEB" stroke-width="20" stroke-linecap="round" stroke-linejoin="bevel" d="M420.873,427.231
	c0,66.636-54.02,120.652-120.655,120.652c-66.634,0-120.653-54.018-120.653-120.653c0-113.113,90.138-195.083,120.653-316.717
	C329.442,233.127,420.873,314.118,420.873,427.231z"/>
<circle opacity="0.7" fill="#EBEBEB" enable-background="new    " cx="234.408" cy="379.92" r="18.853"/>
<path fill="#EBEBEB" d="M309.06,104.33c2.515,12.719,9.282,27.048-8.983,27.048c-15.9,0-11.24-14.569-8.874-26.623
	c2.36-12.024,3.973-17.749,8.874-17.749C304.978,87.007,306.683,92.309,309.06,104.33z"/>
</svg>
