<?xml version="1.0" encoding="utf-8"?>
<!-- Generator: Adobe Illustrator 14.0.0, SVG Export Plug-In . SVG Version: 6.00 Build 43363)  -->
<!DOCTYPE svg PUBLIC "-//W3C//DTD SVG 1.1//EN" "http://www.w3.org/Graphics/SVG/1.1/DTD/svg11.dtd">
<svg version="1.1" xmlns="http://www.w3.org/2000/svg" xmlns:xlink="http://www.w3.org/1999/xlink" x="0px" y="0px" width="800px"
	 height="800px" viewBox="0 0 800 800" enable-background="new 0 0 800 800" xml:space="preserve">
<g id="fullBG">
</g>
<g id="innerBG" display="none">
	<circle display="inline" fill="#68C1DD" cx="400" cy="400" r="390"/>
	<circle display="inline" fill="#3C3C3C" cx="400" cy="400" r="375"/>
</g>
<g id="circle">
	<path fill="#EBEBEB" d="M400,10C184.61,10,10,184.609,10,400s174.61,390,390,390c215.393,0,390-174.609,390-390S615.393,10,400,10z
		 M400,775C192.894,775,25,607.104,25,400C25,192.892,192.894,25,400,25c207.105,0,375,167.892,375,375
		C775,607.104,607.105,775,400,775z"/>
</g>
<g id="Refresh_symbol">
	<path fill="#22E500" d="M500.37,531.724C472.729,552.608,438.313,565,401,565c-91.126,0-165-73.874-165-165h51L187,260L87,400h50.5
		c0,144.974,117.525,262.5,262.5,262.5c58.416,0,112.367-19.092,155.978-51.361L500.37,531.724z"/>
	<path fill="#22E500" d="M662.5,400c0-144.975-117.524-262.5-262.5-262.5c-60.688,0-116.558,20.604-161.018,55.186l56.402,80.551
		C324.002,249.367,360.821,235,401,235c91.127,0,165,73.873,165,165h-56l100,140l100-140H662.5z"/>
</g>
</svg>
