%
M48
M72
T01C0.0276
T02C0.0320
T03C0.0400
T04C0.1260
%
T01
X15100Y5600
X15100Y15600
T02
X6600Y17500
X6600Y16700
X7600Y15000
X7600Y14200
X6600Y7500
X6600Y6700
X7600Y5000
X7600Y4200
T03
X2100Y3100
X2100Y4100
X2100Y5100
X2100Y6100
X2100Y7100
X3100Y7100
X3100Y6100
X3100Y5100
X3100Y4100
X3100Y3100
X2100Y13100
X2100Y14100
X2100Y15100
X2100Y16100
X2100Y17100
X3100Y17100
X3100Y16100
X3100Y15100
X3100Y14100
X3100Y13100
X13100Y13600
X13100Y12600
X14100Y12600
X14100Y13600
X15100Y13600
X15100Y12600
X16100Y12600
X16100Y13600
X16100Y3600
X16100Y2600
X15100Y2600
X15100Y3600
X14100Y3600
X14100Y2600
X13100Y2600
X13100Y3600
T04
X1600Y1100
X1600Y8600
X1600Y11100
X1600Y18600
M30
